<svg xmlns="http://www.w3.org/2000/svg" viewBox="0 0 964.97 4464.88">
  <defs>
    <style>
      .a {
        fill: #ffcc2e;
      }

      .b {
        fill: #bdddf4;
      }

      .c {
        fill: #578cc9;
      }

      .d, .f, .i, .k, .m, .n, .o, .q {
        fill: none;
      }

      .d, .f, .i, .k, .m, .n, .o, .p, .q {
        stroke: #010203;
      }

      .d, .f, .p {
        stroke-miterlimit: 10;
      }

      .d {
        stroke-width: 1.06px;
      }

      .e {
        fill: #2951a3;
      }

      .f {
        stroke-width: 1.23px;
      }

      .g {
        fill: #ffcd0e;
      }

      .h {
        fill: #0db365;
      }

      .i, .k, .m, .n, .o, .q {
        stroke-linecap: round;
        stroke-linejoin: round;
      }

      .i {
        stroke-width: 1.26px;
      }

      .j {
        fill: #f04e33;
      }

      .k {
        stroke-width: 2.11px;
      }

      .l {
        fill: #f9c0d2;
      }

      .m {
        stroke-width: 1.21px;
      }

      .n {
        stroke-width: 0.81px;
      }

      .o, .p {
        stroke-width: 1.4px;
      }

      .p, .r {
        fill: #fff5ee;
      }

      .q {
        stroke-width: 1.43px;
      }

      .s {
        fill: #33a852;
      }

      .t {
        fill: #0c84b5;
      }

      .u {
        fill: #102a3b;
      }

      .v {
        fill: #f5f6f6;
      }

      .w {
        fill: #f9b7b9;
      }

      .x {
        fill: #beddf4;
      }

      .y {
        fill: #0f2a3b;
      }

      .z {
        fill: #f15e5e;
      }
    </style>
  </defs>
  <path class="a" d="M738.85,4090H713.31V3602.31h25.54Zm57.58-487.68H770.88V4090h25.55Zm57.57,0H828.45V4090H854Zm57.58,0H886V4090h25.55Zm57.57,0H943.6V4090h25.55Zm57.57,0h-25.54V4090h25.54Zm57.58,0h-25.55V4090h25.55Zm57.57,0h-25.54V4090h25.54Zm57.58,0H1173.9V4090h25.55Z" transform="translate(-234.84 -102.16)"/>
  <g>
    <path class="b" d="M622.15,995.62a454.27,454.27,0,0,0,30.6-39.48,11.39,11.39,0,1,1,18.74,12.94,476.62,476.62,0,0,1-32.14,41.46,11.38,11.38,0,1,1-17.2-14.92Z" transform="translate(-234.84 -102.16)"/>
    <path class="b" d="M608.23,926.87a11.39,11.39,0,0,1-3.31-15.77,386.68,386.68,0,0,0,24.42-43.28,11.39,11.39,0,1,1,20.52,9.89A409.73,409.73,0,0,1,624,923.55,11.39,11.39,0,0,1,608.23,926.87Z" transform="translate(-234.84 -102.16)"/>
    <path class="b" d="M683.43,929a11.38,11.38,0,0,1-4.64-15.42,448.46,448.46,0,0,0,21.14-45.21,11.39,11.39,0,0,1,21.14,8.48,471.32,471.32,0,0,1-22.22,47.51A11.36,11.36,0,0,1,683.43,929Z" transform="translate(-234.84 -102.16)"/>
    <path class="b" d="M714.75,1020a11.39,11.39,0,0,1-18.32-13.53c9.91-13.41,19.26-27.43,27.79-41.7a11.39,11.39,0,0,1,19.55,11.69C734.85,991.39,725.09,1006,714.75,1020Z" transform="translate(-234.84 -102.16)"/>
    <path class="b" d="M723.84,835a11.39,11.39,0,0,1-7.94-14,451.45,451.45,0,0,0,10.59-48.8,11.38,11.38,0,0,1,11.23-9.6,12.36,12.36,0,0,1,1.81.14,11.39,11.39,0,0,1,9.45,13,471.85,471.85,0,0,1-11.13,51.28A11.4,11.4,0,0,1,723.84,835Z" transform="translate(-234.84 -102.16)"/>
    <path class="b" d="M604.52,1131.08c-13.91,10.43-28.49,20.31-43.33,29.34A11.39,11.39,0,1,1,549.35,1141c14.22-8.65,28.18-18.1,41.49-28.1a11.39,11.39,0,1,1,13.68,18.22Z" transform="translate(-234.84 -102.16)"/>
    <path class="b" d="M514.47,1036.21a409.72,409.72,0,0,1-45.13,27.18,11.39,11.39,0,0,1-10.47-20.23,386.24,386.24,0,0,0,42.62-25.67,11.39,11.39,0,0,1,13,18.72Z" transform="translate(-234.84 -102.16)"/>
    <path class="b" d="M512.52,836.22a11.39,11.39,0,0,1-4.7-15.41,254.33,254.33,0,0,0,18.75-45.23,11.39,11.39,0,0,1,21.78,6.65,276.75,276.75,0,0,1-20.43,49.29A11.38,11.38,0,0,1,512.52,836.22Z" transform="translate(-234.84 -102.16)"/>
    <path class="b" d="M528,906.27A323.4,323.4,0,0,0,556.68,866a11.39,11.39,0,0,1,19.5,11.76,345.34,345.34,0,0,1-30.74,43.08A11.39,11.39,0,0,1,528,906.27Z" transform="translate(-234.84 -102.16)"/>
    <path class="b" d="M540.44,986.56a386.52,386.52,0,0,0,34.67-35.66,11.39,11.39,0,1,1,17.32,14.8,414.12,414.12,0,0,1-36.71,37.76,11.39,11.39,0,0,1-15.28-16.9Z" transform="translate(-234.84 -102.16)"/>
    <path class="b" d="M366,700.91h0a82.93,82.93,0,0,1-8.87,37.56,11.39,11.39,0,0,1-20.35-10.23,60.35,60.35,0,0,0,6.45-27.33H366Z" transform="translate(-234.84 -102.16)"/>
    <path class="b" d="M585.07,836.75a11.38,11.38,0,0,1-6.24-14.85,320.59,320.59,0,0,0,15.07-47.06,11.39,11.39,0,1,1,22.16,5.24,340.6,340.6,0,0,1-16.15,50.43A11.38,11.38,0,0,1,585.07,836.75Z" transform="translate(-234.84 -102.16)"/>
    <path class="b" d="M768.41,930.33a11.39,11.39,0,1,1-20.59-9.73c7.12-15.05,13.56-30.63,19.16-46.29a11.4,11.4,0,0,1,10.73-7.55,11.16,11.16,0,0,1,3.83.67A11.38,11.38,0,0,1,788.43,882C782.58,898.34,775.84,914.61,768.41,930.33Z" transform="translate(-234.84 -102.16)"/>
    <path class="b" d="M807.05,739.34a11.4,11.4,0,0,1-10.8-12c.45-8.78.67-17.69.67-26.48H819.7c0,9.17-.24,18.47-.7,27.63A11.41,11.41,0,0,1,807.05,739.34Z" transform="translate(-234.84 -102.16)"/>
    <path class="b" d="M602.84,1048.21a476.72,476.72,0,0,1-40.46,33.42,11.39,11.39,0,0,1-13.51-18.33,454,454,0,0,0,38.51-31.82,11.39,11.39,0,1,1,15.46,16.73Z" transform="translate(-234.84 -102.16)"/>
    <path class="b" d="M518.48,1110.38a472.57,472.57,0,0,1-46.84,23.7,11.39,11.39,0,1,1-9.13-20.86,449.66,449.66,0,0,0,44.57-22.56,11.39,11.39,0,0,1,15.56,4.16A11.4,11.4,0,0,1,518.48,1110.38Z" transform="translate(-234.84 -102.16)"/>
    <path class="b" d="M560.43,700.91h0a283.05,283.05,0,0,1-1.5,29,11.39,11.39,0,0,1-22.66-2.35,257.43,257.43,0,0,0,1.38-26.69h22.78Z" transform="translate(-234.84 -102.16)"/>
    <path class="b" d="M754.34,723.62a11.38,11.38,0,0,1-22.74-1.08c.33-7.14.5-14.41.51-21.63h22.77C754.88,708.49,754.7,716.13,754.34,723.62Z" transform="translate(-234.84 -102.16)"/>
    <path class="b" d="M804.24,767.66a11.38,11.38,0,0,1,9.59,12.93c-2.56,17.22-6,34.48-10.21,51.32a11.39,11.39,0,1,1-22.1-5.54c4-16.12,7.33-32.65,9.78-49.12a11.39,11.39,0,0,1,11.25-9.72A10.78,10.78,0,0,1,804.24,767.66Z" transform="translate(-234.84 -102.16)"/>
    <path class="b" d="M671.61,764.35a11.25,11.25,0,0,1,2.15.2,11.39,11.39,0,0,1,9,13.32,408.24,408.24,0,0,1-13.22,51A11.39,11.39,0,1,1,648,821.72a383.29,383.29,0,0,0,12.48-48.12A11.39,11.39,0,0,1,671.61,764.35Z" transform="translate(-234.84 -102.16)"/>
    <path class="b" d="M624.21,727.77A11.39,11.39,0,1,1,601.5,726c.64-8.3,1-16.74,1-25.11h22.78C625.24,709.87,624.89,718.9,624.21,727.77Z" transform="translate(-234.84 -102.16)"/>
    <path class="b" d="M677.28,736.31a11.4,11.4,0,0,1-10.69-12c.47-7.75.7-15.6.7-23.35h22.78c0,8.2-.25,16.51-.74,24.71A11.36,11.36,0,0,1,677.28,736.31Z" transform="translate(-234.84 -102.16)"/>
    <path class="b" d="M644.79,1097.68a11.39,11.39,0,1,1-15.37-16.81c12.3-11.24,24.18-23.21,35.31-35.56a11.39,11.39,0,0,1,16.92,15.24C670,1073.45,657.63,1085.94,644.79,1097.68Z" transform="translate(-234.84 -102.16)"/>
    <path class="b" d="M314.53,846a149.9,149.9,0,0,1-32.31,3.38V826.57a126.58,126.58,0,0,0,27.38-2.85,11.1,11.1,0,0,1,2.48-.28A11.39,11.39,0,0,1,314.53,846Z" transform="translate(-234.84 -102.16)"/>
    <path class="b" d="M315.19,911.76a215.58,215.58,0,0,1-33,2.42V891.42a191.73,191.73,0,0,0,29.48-2.17,11.68,11.68,0,0,1,1.76-.13,11.39,11.39,0,0,1,1.73,22.64Z" transform="translate(-234.84 -102.16)"/>
    <path class="b" d="M316.14,977.07a281.52,281.52,0,0,1-33.92,2V956.26a258.59,258.59,0,0,0,31.17-1.8,10.9,10.9,0,0,1,1.39-.08,11.39,11.39,0,0,1,1.36,22.69Z" transform="translate(-234.84 -102.16)"/>
    <path class="b" d="M310.27,756.24a11.39,11.39,0,0,1,4.42,21.89,84,84,0,0,1-32.47,6.43V761.81a61.26,61.26,0,0,0,23.64-4.67A11.3,11.3,0,0,1,310.27,756.24Z" transform="translate(-234.84 -102.16)"/>
    <path class="b" d="M358,875.86a190.72,190.72,0,0,0,41.45-24.64,11.39,11.39,0,0,1,14,17.95,213.93,213.93,0,0,1-46.41,27.59,11.39,11.39,0,0,1-9.06-20.9Z" transform="translate(-234.84 -102.16)"/>
    <path class="b" d="M349.42,821.07a11.38,11.38,0,0,1,3.07-15.8,125.92,125.92,0,0,0,33.24-32.86,11.39,11.39,0,0,1,18.73,13,148.63,148.63,0,0,1-39.23,38.76A11.37,11.37,0,0,1,349.42,821.07Z" transform="translate(-234.84 -102.16)"/>
    <path class="b" d="M319.54,1172.12c-12.34,1-24.87,1.42-37.32,1.43v-22.78c11.86,0,23.8-.44,35.54-1.36l.9,0a11.39,11.39,0,0,1,.88,22.74Z" transform="translate(-234.84 -102.16)"/>
    <path class="b" d="M317.2,1042.17c-11.54,1.17-23.28,1.69-35,1.7V1021.1c10.93,0,21.91-.5,32.69-1.59a11.27,11.27,0,0,1,1.16-.06,11.39,11.39,0,0,1,1.13,22.72Z" transform="translate(-234.84 -102.16)"/>
    <path class="b" d="M313.79,1237.48c-10.44.6-21,.8-31.57.8v-22.77c10.11,0,20.24-.2,30.25-.77.23,0,.45,0,.67,0a11.39,11.39,0,0,1,.65,22.76Z" transform="translate(-234.84 -102.16)"/>
    <path class="b" d="M318.36,1107.17c-11.95,1-24.08,1.53-36.14,1.53v-22.77c11.39,0,22.85-.46,34.15-1.45.34,0,.67,0,1,0a11.39,11.39,0,0,1,1,22.73Z" transform="translate(-234.84 -102.16)"/>
    <path class="b" d="M282.22,719.84V704.75a3.84,3.84,0,0,0,3.85-3.84h15.08A19,19,0,0,1,282.22,719.84Z" transform="translate(-234.84 -102.16)"/>
    <path class="b" d="M453.88,971.31a321.28,321.28,0,0,0,39.55-29.67,11.39,11.39,0,0,1,15,17.12,346,346,0,0,1-42.35,31.77,11.39,11.39,0,0,1-12.23-19.22Z" transform="translate(-234.84 -102.16)"/>
    <path class="b" d="M435.52,833a11.39,11.39,0,0,1-2.08-16,190.84,190.84,0,0,0,24.31-41.62,11.41,11.41,0,0,1,10.49-6.94,11.54,11.54,0,0,1,4.45.91,11.4,11.4,0,0,1,6,14.94,213.59,213.59,0,0,1-27.23,46.59A11.39,11.39,0,0,1,435.52,833Z" transform="translate(-234.84 -102.16)"/>
    <path class="b" d="M495.61,700.91h0a215.78,215.78,0,0,1-2.29,31.38A11.39,11.39,0,0,1,470.79,729a195.66,195.66,0,0,0,2-28.06h22.77Z" transform="translate(-234.84 -102.16)"/>
    <path class="b" d="M446.43,896.58a257.71,257.71,0,0,0,34.33-35A11.39,11.39,0,0,1,498.46,876a281.14,281.14,0,0,1-37.38,38,11.38,11.38,0,1,1-14.65-17.43Z" transform="translate(-234.84 -102.16)"/>
    <path class="b" d="M426.87,735a11.39,11.39,0,1,1-22.17-5.2A126.71,126.71,0,0,0,408,700.91h22.77A148.88,148.88,0,0,1,426.87,735Z" transform="translate(-234.84 -102.16)"/>
    <path class="b" d="M515.21,1185.4c-15.66,7.54-31.88,14.4-48.2,20.37a11.38,11.38,0,1,1-7.83-21.38c15.63-5.72,31.15-12.29,46.14-19.51a11.39,11.39,0,0,1,9.89,20.52Z" transform="translate(-234.84 -102.16)"/>
    <path class="b" d="M422.45,1152.42a473.43,473.43,0,0,1-50.91,12.72,11.39,11.39,0,1,1-4.28-22.37,447.66,447.66,0,0,0,48.44-12.11,11.65,11.65,0,0,1,3.38-.51,11.39,11.39,0,0,1,3.37,22.27Z" transform="translate(-234.84 -102.16)"/>
    <path class="b" d="M417,1221.34c-16.82,4.34-34.06,7.9-51.23,10.59a11.39,11.39,0,0,1-3.52-22.51c16.44-2.57,32.95-6,49.06-10.14a11.21,11.21,0,0,1,2.86-.36,11.39,11.39,0,0,1,2.83,22.42Z" transform="translate(-234.84 -102.16)"/>
    <path class="b" d="M363.53,1010.75a319.11,319.11,0,0,0,46.72-16.21,11.39,11.39,0,0,1,9.11,20.88,342.62,342.62,0,0,1-50.06,17.36,11.39,11.39,0,1,1-5.77-22Z" transform="translate(-234.84 -102.16)"/>
    <path class="b" d="M361.19,943.9a254.56,254.56,0,0,0,44.89-19.54,11.27,11.27,0,0,1,5.52-1.44,11.39,11.39,0,0,1,5.54,21.35,277.87,277.87,0,0,1-48.92,21.3,11.39,11.39,0,0,1-7-21.67Z" transform="translate(-234.84 -102.16)"/>
    <path class="b" d="M365.51,1076.94a381.83,381.83,0,0,0,47.79-13.85,11.39,11.39,0,0,1,7.75,21.42,407.13,407.13,0,0,1-50.63,14.68,11.39,11.39,0,0,1-4.91-22.25Z" transform="translate(-234.84 -102.16)"/>
  </g>
  <g>
    <path class="b" d="M990.75,2160.29a387.43,387.43,0,0,0-33.66-26.1,9.71,9.71,0,0,1,11-16,407,407,0,0,1,35.36,27.4,9.72,9.72,0,0,1-12.73,14.68Z" transform="translate(-234.84 -102.16)"/>
    <path class="b" d="M932.13,2172.16a9.71,9.71,0,0,1-13.44,2.82,330.72,330.72,0,0,0-36.91-20.83,9.71,9.71,0,1,1,8.43-17.49,347,347,0,0,1,39.09,22.06A9.71,9.71,0,0,1,932.13,2172.16Z" transform="translate(-234.84 -102.16)"/>
    <path class="b" d="M933.92,2108a9.72,9.72,0,0,1-13.16,4,381.3,381.3,0,0,0-38.55-18,9.71,9.71,0,0,1-6.1-9,9.83,9.83,0,0,1,.7-3.62,9.71,9.71,0,0,1,12.63-5.39A399.69,399.69,0,0,1,930,2094.88,9.7,9.7,0,0,1,933.92,2108Z" transform="translate(-234.84 -102.16)"/>
    <path class="b" d="M1011.57,2081.32a9.71,9.71,0,0,1-11.54,15.62c-11.43-8.44-23.39-16.42-35.56-23.7a9.71,9.71,0,1,1,10-16.66C987.15,2064.18,999.64,2072.5,1011.57,2081.32Z" transform="translate(-234.84 -102.16)"/>
    <path class="b" d="M853.81,2073.57a9.7,9.7,0,0,1-11.94,6.77,384,384,0,0,0-41.62-9,9.72,9.72,0,0,1-8.18-9.58,10.18,10.18,0,0,1,.12-1.54,9.72,9.72,0,0,1,11.12-8.06,405.21,405.21,0,0,1,43.73,9.49A9.72,9.72,0,0,1,853.81,2073.57Z" transform="translate(-234.84 -102.16)"/>
    <path class="b" d="M1106.26,2175.32c8.9,11.86,17.32,24.29,25,36.95a9.71,9.71,0,0,1-16.59,10.09c-7.38-12.12-15.44-24-24-35.38a9.71,9.71,0,1,1,15.53-11.66Z" transform="translate(-234.84 -102.16)"/>
    <path class="b" d="M1025.36,2252.1a349.46,349.46,0,0,1,23.18,38.49,9.71,9.71,0,1,1-17.25,8.92,330.45,330.45,0,0,0-21.88-36.33,9.71,9.71,0,1,1,15.95-11.08Z" transform="translate(-234.84 -102.16)"/>
    <path class="b" d="M854.83,2253.77a9.71,9.71,0,0,1-13.14,4,217.48,217.48,0,0,0-38.57-16,9.72,9.72,0,0,1-6.87-9.29,9.56,9.56,0,0,1,.42-2.83,9.72,9.72,0,0,1,12.13-6.46,237.74,237.74,0,0,1,42,17.42A9.71,9.71,0,0,1,854.83,2253.77Z" transform="translate(-234.84 -102.16)"/>
    <path class="b" d="M914.56,2240.59a274.23,274.23,0,0,0-34.3-24.47,9.71,9.71,0,0,1-4.7-8.33,9.58,9.58,0,0,1,1.4-5,9.7,9.7,0,0,1,13.33-3.3A294.11,294.11,0,0,1,927,2225.7a9.71,9.71,0,1,1-12.46,14.89Z" transform="translate(-234.84 -102.16)"/>
    <path class="b" d="M983,2230a331.64,331.64,0,0,0-30.41-29.57,9.71,9.71,0,1,1,12.62-14.76,352.39,352.39,0,0,1,32.2,31.3A9.71,9.71,0,0,1,983,2230Z" transform="translate(-234.84 -102.16)"/>
    <path class="b" d="M739.45,2378.73h0a70.7,70.7,0,0,1,32,7.57,9.71,9.71,0,0,1-8.72,17.36,51.28,51.28,0,0,0-23.3-5.51h0Z" transform="translate(-234.84 -102.16)"/>
    <path class="b" d="M855.28,2191.9a9.72,9.72,0,0,1-12.66,5.33,271.25,271.25,0,0,0-40.13-12.85,9.72,9.72,0,0,1-7.48-9.45,10.28,10.28,0,0,1,.26-2.24,9.71,9.71,0,0,1,11.69-7.21,290.76,290.76,0,0,1,43,13.76A9.71,9.71,0,0,1,855.28,2191.9Z" transform="translate(-234.84 -102.16)"/>
    <path class="b" d="M935.08,2035.56a9.71,9.71,0,1,1-8.3,17.56c-12.83-6.07-26.11-11.56-39.47-16.34a9.73,9.73,0,0,1-6.44-9.14,9.83,9.83,0,0,1,.57-3.27,9.73,9.73,0,0,1,12.42-5.88C907.81,2023.48,921.68,2029.23,935.08,2035.56Z" transform="translate(-234.84 -102.16)"/>
    <path class="b" d="M772.22,2002.61a9.71,9.71,0,0,1-10.19,9.21c-7.49-.38-15.09-.57-22.58-.57h0v-19.42h0c7.82,0,15.75.2,23.56.59A9.74,9.74,0,0,1,772.22,2002.61Z" transform="translate(-234.84 -102.16)"/>
    <path class="b" d="M1035.6,2176.75a408.54,408.54,0,0,1,28.5,34.5,9.71,9.71,0,1,1-15.63,11.52,387.29,387.29,0,0,0-27.14-32.84,9.71,9.71,0,0,1,14.27-13.18Z" transform="translate(-234.84 -102.16)"/>
    <path class="b" d="M1088.61,2248.69a401.65,401.65,0,0,1,20.21,39.93,9.71,9.71,0,1,1-17.79,7.8,383.46,383.46,0,0,0-19.23-38,9.71,9.71,0,1,1,16.81-9.72Z" transform="translate(-234.84 -102.16)"/>
    <path class="b" d="M739.45,2212.92h0a239.64,239.64,0,0,1,24.76,1.28,9.71,9.71,0,1,1-2,19.31,223.79,223.79,0,0,0-22.76-1.17h0Z" transform="translate(-234.84 -102.16)"/>
    <path class="b" d="M758.81,2047.56a9.71,9.71,0,1,1-.92,19.4c-6.08-.29-12.29-.44-18.44-.44h0V2047.1h0C745.91,2047.1,752.42,2047.26,758.81,2047.56Z" transform="translate(-234.84 -102.16)"/>
    <path class="b" d="M796.36,2005a9.71,9.71,0,0,1,11-8.17c14.67,2.18,29.4,5.11,43.75,8.7a9.71,9.71,0,1,1-4.72,18.84c-13.74-3.44-27.84-6.25-41.89-8.34a9.7,9.7,0,0,1-8.28-9.59A10.16,10.16,0,0,1,796.36,2005Z" transform="translate(-234.84 -102.16)"/>
    <path class="b" d="M793.54,2118.11a9.74,9.74,0,0,1,11.54-9.55,348.25,348.25,0,0,1,43.48,11.27,9.71,9.71,0,0,1-6.09,18.45,327.56,327.56,0,0,0-41-10.65A9.71,9.71,0,0,1,793.54,2118.11Z" transform="translate(-234.84 -102.16)"/>
    <path class="b" d="M762.36,2158.53a9.71,9.71,0,0,1-1.5,19.37c-7.08-.55-14.28-.83-21.41-.83h0v-19.43h0C747.08,2157.65,754.79,2158,762.36,2158.53Z" transform="translate(-234.84 -102.16)"/>
    <path class="b" d="M769.63,2113.27a9.72,9.72,0,0,1-10.27,9.12c-6.61-.4-13.31-.6-19.91-.6h0v-19.42c7,0,14.07.21,21.07.63A9.68,9.68,0,0,1,769.63,2113.27Z" transform="translate(-234.84 -102.16)"/>
    <path class="b" d="M1077.79,2141a9.71,9.71,0,0,1-14.34,13.1c-9.59-10.49-19.79-20.61-30.32-30.1a9.71,9.71,0,1,1,13-14.43C1057.12,2119.45,1067.78,2130,1077.79,2141Z" transform="translate(-234.84 -102.16)"/>
    <path class="b" d="M863.13,2422.6a128.23,128.23,0,0,1,2.88,27.55H846.6a107.89,107.89,0,0,0-2.43-23.35,9.53,9.53,0,0,1-.23-2.11,9.71,9.71,0,0,1,19.19-2.09Z" transform="translate(-234.84 -102.16)"/>
    <path class="b" d="M919.25,2422a184.06,184.06,0,0,1,2.06,28.11H901.9a164.56,164.56,0,0,0-1.85-25.14,10.81,10.81,0,0,1-.11-1.5,9.71,9.71,0,0,1,19.31-1.47Z" transform="translate(-234.84 -102.16)"/>
    <path class="b" d="M974.94,2421.23a244,244,0,0,1,1.67,28.92H957.19a221.67,221.67,0,0,0-1.53-26.58,9.45,9.45,0,0,1-.07-1.18,9.71,9.71,0,0,1,19.35-1.16Z" transform="translate(-234.84 -102.16)"/>
    <path class="b" d="M786.63,2426.23a9.71,9.71,0,0,1,18.66-3.77,71.58,71.58,0,0,1,5.49,27.69h-19.4a52.27,52.27,0,0,0-4-20.16A9.61,9.61,0,0,1,786.63,2426.23Z" transform="translate(-234.84 -102.16)"/>
    <path class="b" d="M888.63,2385.53a162.39,162.39,0,0,0-21-35.35,9.71,9.71,0,1,1,15.3-11.95,181.4,181.4,0,0,1,23.53,39.57,9.71,9.71,0,0,1-17.82,7.73Z" transform="translate(-234.84 -102.16)"/>
    <path class="b" d="M841.92,2392.85a9.7,9.7,0,0,1-13.48-2.62,107.47,107.47,0,0,0-28-28.35,9.71,9.71,0,0,1,11.06-16,126.57,126.57,0,0,1,33,33.46A9.7,9.7,0,0,1,841.92,2392.85Z" transform="translate(-234.84 -102.16)"/>
    <path class="b" d="M1141.26,2418.33c.82,10.52,1.21,21.2,1.22,31.82h-19.43c0-10.11-.37-20.29-1.16-30.31,0-.25,0-.51,0-.76a9.71,9.71,0,0,1,19.39-.75Z" transform="translate(-234.84 -102.16)"/>
    <path class="b" d="M1030.45,2420.32c1,9.84,1.44,19.86,1.45,29.83h-19.42a277.68,277.68,0,0,0-1.35-27.87,8.42,8.42,0,0,1,0-1,9.71,9.71,0,0,1,19.37-1Z" transform="translate(-234.84 -102.16)"/>
    <path class="b" d="M1197,2423.23c.52,8.91.69,17.93.69,26.92h-19.42c0-8.62-.17-17.26-.66-25.8,0-.19,0-.38,0-.57a9.71,9.71,0,0,1,19.4-.55Z" transform="translate(-234.84 -102.16)"/>
    <path class="b" d="M1085.88,2419.33c.89,10.2,1.3,20.54,1.3,30.82h-19.41c0-9.71-.4-19.49-1.24-29.12a8.25,8.25,0,0,1,0-.86,9.71,9.71,0,0,1,19.39-.84Z" transform="translate(-234.84 -102.16)"/>
    <path class="b" d="M755.59,2450.15H742.73a3.28,3.28,0,0,0-3.28-3.28h0V2434h0A16.17,16.17,0,0,1,755.59,2450.15Z" transform="translate(-234.84 -102.16)"/>
    <path class="b" d="M970,2303.77a274.73,274.73,0,0,0-25.31-33.72,9.71,9.71,0,1,1,14.6-12.82,294.23,294.23,0,0,1,27.09,36.11A9.71,9.71,0,1,1,970,2303.77Z" transform="translate(-234.84 -102.16)"/>
    <path class="b" d="M852,2319.43a9.72,9.72,0,0,1-13.62,1.78,162.72,162.72,0,0,0-35.48-20.74,9.71,9.71,0,1,1,7.59-17.88,181.93,181.93,0,0,1,39.73,23.22A9.71,9.71,0,0,1,852,2319.43Z" transform="translate(-234.84 -102.16)"/>
    <path class="b" d="M739.45,2268.19h0a184.88,184.88,0,0,1,26.76,1.95,9.71,9.71,0,0,1-2.84,19.22,164.2,164.2,0,0,0-23.92-1.75h0Z" transform="translate(-234.84 -102.16)"/>
    <path class="b" d="M906.3,2310.13a219.9,219.9,0,0,0-29.8-29.28,9.71,9.71,0,0,1,12.23-15.09,239,239,0,0,1,32.44,31.88,9.71,9.71,0,1,1-14.87,12.49Z" transform="translate(-234.84 -102.16)"/>
    <path class="b" d="M768.48,2326.8a9.71,9.71,0,0,1-4.44,18.91,107.8,107.8,0,0,0-24.59-2.83h0v-19.42A127.37,127.37,0,0,1,768.48,2326.8Z" transform="translate(-234.84 -102.16)"/>
    <path class="b" d="M1152.58,2251.48c6.44,13.35,12.28,27.18,17.38,41.1a9.71,9.71,0,0,1-18.24,6.67c-4.88-13.32-10.47-26.56-16.63-39.34a9.63,9.63,0,0,1-1-4.21,9.71,9.71,0,0,1,18.46-4.22Z" transform="translate(-234.84 -102.16)"/>
    <path class="b" d="M1124.46,2330.57a404.55,404.55,0,0,1,10.85,43.42,9.71,9.71,0,0,1-19.08,3.65,383.05,383.05,0,0,0-10.32-41.31,9.71,9.71,0,0,1,18.55-5.76Z" transform="translate(-234.84 -102.16)"/>
    <path class="b" d="M1183.23,2335.18c3.7,14.35,6.74,29.05,9,43.7a9.71,9.71,0,0,1-19.19,3c-2.19-14-5.1-28.09-8.65-41.83a9.71,9.71,0,0,1,18.81-4.86Z" transform="translate(-234.84 -102.16)"/>
    <path class="b" d="M1003.65,2380.81A272.28,272.28,0,0,0,989.84,2341a9.56,9.56,0,0,1-.82-3.88,9.72,9.72,0,0,1,18.62-3.89,291.21,291.21,0,0,1,14.8,42.69,9.71,9.71,0,1,1-18.79,4.91Z" transform="translate(-234.84 -102.16)"/>
    <path class="b" d="M946.65,2382.81A217.3,217.3,0,0,0,930,2344.53a9.71,9.71,0,0,1,17-9.43,237,237,0,0,1,18.16,41.71,9.71,9.71,0,1,1-18.48,6Z" transform="translate(-234.84 -102.16)"/>
    <path class="b" d="M1060.1,2379.12a326.65,326.65,0,0,0-11.81-40.74,9.58,9.58,0,0,1-.58-3.31,9.71,9.71,0,0,1,18.84-3.3,345.38,345.38,0,0,1,12.52,43.17,9.71,9.71,0,1,1-19,4.18Z" transform="translate(-234.84 -102.16)"/>
  </g>
  <g>
    <path class="b" d="M488,2741.49a387.76,387.76,0,0,0,33.66,26.09,9.71,9.71,0,1,1-11,16,406.86,406.86,0,0,1-35.35-27.4A9.71,9.71,0,1,1,488,2741.49Z" transform="translate(-234.84 -102.16)"/>
    <path class="b" d="M546.58,2729.62a9.71,9.71,0,0,1,13.44-2.83,330.72,330.72,0,0,0,36.91,20.83,9.71,9.71,0,0,1,5.5,8.75,9.6,9.6,0,0,1-1,4.21,9.7,9.7,0,0,1-13,4.53,347.56,347.56,0,0,1-39.09-22.05A9.71,9.71,0,0,1,546.58,2729.62Z" transform="translate(-234.84 -102.16)"/>
    <path class="b" d="M544.79,2793.74a9.72,9.72,0,0,1,13.15-4,381.46,381.46,0,0,0,38.56,18,9.71,9.71,0,0,1,6.1,9,9.83,9.83,0,0,1-.7,3.62,9.73,9.73,0,0,1-12.63,5.4,401.94,401.94,0,0,1-40.52-19A9.7,9.7,0,0,1,544.79,2793.74Z" transform="translate(-234.84 -102.16)"/>
    <path class="b" d="M467.14,2820.45a9.71,9.71,0,1,1,11.54-15.62c11.43,8.44,23.39,16.42,35.56,23.7a9.71,9.71,0,0,1-10,16.66C491.56,2837.59,479.07,2829.27,467.14,2820.45Z" transform="translate(-234.84 -102.16)"/>
    <path class="b" d="M624.9,2828.2a9.7,9.7,0,0,1,11.94-6.77,384,384,0,0,0,41.62,9,9.72,9.72,0,0,1,8.18,9.58,10.18,10.18,0,0,1-.12,1.54,9.73,9.73,0,0,1-11.12,8.06,405.21,405.21,0,0,1-43.73-9.49A9.72,9.72,0,0,1,624.9,2828.2Z" transform="translate(-234.84 -102.16)"/>
    <path class="b" d="M372.44,2726.45c-8.89-11.86-17.31-24.29-25-36.95A9.71,9.71,0,0,1,364,2679.41c7.37,12.12,15.44,24,24,35.38a9.71,9.71,0,1,1-15.54,11.66Z" transform="translate(-234.84 -102.16)"/>
    <path class="b" d="M453.34,2649.67a350.94,350.94,0,0,1-23.17-38.49,9.71,9.71,0,1,1,17.25-8.92,328.9,328.9,0,0,0,21.88,36.33,9.71,9.71,0,0,1-16,11.08Z" transform="translate(-234.84 -102.16)"/>
    <path class="b" d="M623.88,2648a9.71,9.71,0,0,1,13.14-4,217,217,0,0,0,38.56,16,9.72,9.72,0,0,1,6.88,9.29,10,10,0,0,1-.42,2.84,9.73,9.73,0,0,1-12.13,6.45,237.84,237.84,0,0,1-42-17.42A9.71,9.71,0,0,1,623.88,2648Z" transform="translate(-234.84 -102.16)"/>
    <path class="b" d="M564.15,2661.18a274.23,274.23,0,0,0,34.3,24.47,9.71,9.71,0,0,1,4.7,8.33,9.58,9.58,0,0,1-1.4,5,9.7,9.7,0,0,1-13.33,3.3,294.11,294.11,0,0,1-36.73-26.21,9.71,9.71,0,1,1,12.46-14.89Z" transform="translate(-234.84 -102.16)"/>
    <path class="b" d="M495.68,2671.81a329.07,329.07,0,0,0,30.41,29.57,9.71,9.71,0,1,1-12.62,14.76,351.11,351.11,0,0,1-32.2-31.3,9.71,9.71,0,1,1,14.41-13Z" transform="translate(-234.84 -102.16)"/>
    <path class="b" d="M739.26,2523h0a70.77,70.77,0,0,1-32-7.57,9.71,9.71,0,0,1,8.72-17.36,51.36,51.36,0,0,0,23.31,5.51h0Z" transform="translate(-234.84 -102.16)"/>
    <path class="b" d="M623.43,2709.87a9.7,9.7,0,0,1,12.66-5.32,272.39,272.39,0,0,0,40.13,12.84,9.71,9.71,0,0,1-4.47,18.9,290.76,290.76,0,0,1-43-13.76A9.71,9.71,0,0,1,623.43,2709.87Z" transform="translate(-234.84 -102.16)"/>
    <path class="b" d="M543.63,2866.21a9.71,9.71,0,0,1,8.29-17.56c12.84,6.07,26.12,11.56,39.47,16.34a9.72,9.72,0,0,1,6.45,9.14,9.94,9.94,0,0,1-.57,3.28,9.72,9.72,0,0,1-12.42,5.87C570.9,2878.29,557,2872.55,543.63,2866.21Z" transform="translate(-234.84 -102.16)"/>
    <path class="b" d="M706.49,2899.16a9.71,9.71,0,0,1,10.19-9.21c7.49.38,15.09.57,22.58.57h0v19.42h0c-7.82,0-15.75-.2-23.56-.59A9.73,9.73,0,0,1,706.49,2899.16Z" transform="translate(-234.84 -102.16)"/>
    <path class="b" d="M443.11,2725a406.62,406.62,0,0,1-28.5-34.5A9.71,9.71,0,1,1,430.24,2679a387.29,387.29,0,0,0,27.14,32.84A9.71,9.71,0,0,1,443.11,2725Z" transform="translate(-234.84 -102.16)"/>
    <path class="b" d="M390.1,2653.08a401.73,401.73,0,0,1-20.22-39.93,9.71,9.71,0,0,1,17.79-7.79,385.56,385.56,0,0,0,19.24,38,9.71,9.71,0,1,1-16.81,9.72Z" transform="translate(-234.84 -102.16)"/>
    <path class="b" d="M739.26,2688.86h0a245.72,245.72,0,0,1-24.77-1.28,9.71,9.71,0,0,1,2-19.32,223.49,223.49,0,0,0,22.76,1.17h0Z" transform="translate(-234.84 -102.16)"/>
    <path class="b" d="M719.9,2854.21a9.71,9.71,0,0,1,.92-19.4c6.08.29,12.29.44,18.44.44h0v19.42h0C732.8,2854.67,726.28,2854.51,719.9,2854.21Z" transform="translate(-234.84 -102.16)"/>
    <path class="b" d="M682.34,2896.76a9.71,9.71,0,0,1-11,8.18c-14.68-2.19-29.4-5.12-43.75-8.71a9.71,9.71,0,0,1,4.71-18.84c13.75,3.44,27.84,6.25,41.9,8.34a9.7,9.7,0,0,1,8.28,9.59A8.9,8.9,0,0,1,682.34,2896.76Z" transform="translate(-234.84 -102.16)"/>
    <path class="b" d="M685.17,2783.66a9.74,9.74,0,0,1-11.54,9.55,348.25,348.25,0,0,1-43.48-11.27,9.71,9.71,0,0,1,6.09-18.45,327.56,327.56,0,0,0,41,10.65A9.72,9.72,0,0,1,685.17,2783.66Z" transform="translate(-234.84 -102.16)"/>
    <path class="b" d="M716.35,2743.24a9.71,9.71,0,1,1,1.5-19.36c7.07.54,14.28.82,21.41.82h0v19.43h0C731.62,2744.12,723.92,2743.83,716.35,2743.24Z" transform="translate(-234.84 -102.16)"/>
    <path class="b" d="M709.08,2788.5a9.71,9.71,0,0,1,10.27-9.11c6.61.39,13.3.59,19.91.59h0v19.42c-7,0-14.08-.21-21.07-.63A9.67,9.67,0,0,1,709.08,2788.5Z" transform="translate(-234.84 -102.16)"/>
    <path class="b" d="M400.92,2760.79a9.71,9.71,0,1,1,14.33-13.1c9.59,10.49,19.8,20.62,30.33,30.11a9.7,9.7,0,1,1-13,14.42C421.59,2782.32,410.93,2771.75,400.92,2760.79Z" transform="translate(-234.84 -102.16)"/>
    <path class="b" d="M615.58,2479.17a127.6,127.6,0,0,1-2.88-27.55h19.4a108.46,108.46,0,0,0,2.44,23.35,9.53,9.53,0,0,1,.23,2.11,9.71,9.71,0,0,1-19.19,2.09Z" transform="translate(-234.84 -102.16)"/>
    <path class="b" d="M559.46,2479.73a185.34,185.34,0,0,1-2.07-28.11h19.42a164.46,164.46,0,0,0,1.84,25.14,9.48,9.48,0,0,1,.12,1.5,9.71,9.71,0,0,1-19.31,1.47Z" transform="translate(-234.84 -102.16)"/>
    <path class="b" d="M503.77,2480.54a241.91,241.91,0,0,1-1.67-28.92h19.41a223.76,223.76,0,0,0,1.54,26.58,9.45,9.45,0,0,1,.07,1.18,9.71,9.71,0,0,1-19.35,1.16Z" transform="translate(-234.84 -102.16)"/>
    <path class="b" d="M692.08,2475.54a9.72,9.72,0,0,1-18.67,3.77,71.75,71.75,0,0,1-5.48-27.69h19.4a52.22,52.22,0,0,0,4,20.16A9.62,9.62,0,0,1,692.08,2475.54Z" transform="translate(-234.84 -102.16)"/>
    <path class="b" d="M590.07,2516.24a162.83,162.83,0,0,0,21,35.35,9.71,9.71,0,0,1-15.31,12A181.82,181.82,0,0,1,572.26,2524a9.71,9.71,0,0,1,17.81-7.73Z" transform="translate(-234.84 -102.16)"/>
    <path class="b" d="M636.79,2508.92a9.71,9.71,0,0,1,13.48,2.62,107.47,107.47,0,0,0,28,28.35,9.71,9.71,0,0,1-11.06,16,126.76,126.76,0,0,1-33.06-33.46A9.71,9.71,0,0,1,636.79,2508.92Z" transform="translate(-234.84 -102.16)"/>
    <path class="b" d="M337.45,2483.44c-.82-10.52-1.22-21.2-1.22-31.82h19.42c0,10.12.38,20.29,1.16,30.31,0,.25,0,.51,0,.76a9.71,9.71,0,0,1-19.39.75Z" transform="translate(-234.84 -102.16)"/>
    <path class="b" d="M448.26,2481.45a295.84,295.84,0,0,1-1.45-29.83h19.42a277.68,277.68,0,0,0,1.35,27.87c0,.34.05.67.05,1a9.71,9.71,0,0,1-19.37,1Z" transform="translate(-234.84 -102.16)"/>
    <path class="b" d="M281.72,2478.54c-.52-8.91-.69-17.93-.69-26.92h19.42c0,8.62.16,17.26.66,25.8,0,.19,0,.38,0,.57a9.71,9.71,0,0,1-19.4.55Z" transform="translate(-234.84 -102.16)"/>
    <path class="b" d="M392.83,2482.44c-.89-10.2-1.3-20.54-1.31-30.82h19.42c0,9.71.39,19.49,1.24,29.12,0,.29,0,.58,0,.86a9.71,9.71,0,0,1-19.38.84Z" transform="translate(-234.84 -102.16)"/>
    <path class="b" d="M723.12,2451.62H736a3.28,3.28,0,0,0,3.28,3.28h0v12.87h0A16.17,16.17,0,0,1,723.12,2451.62Z" transform="translate(-234.84 -102.16)"/>
    <path class="b" d="M508.68,2598a275.67,275.67,0,0,0,25.3,33.72,9.71,9.71,0,1,1-14.59,12.82,295.33,295.33,0,0,1-27.1-36.11A9.71,9.71,0,1,1,508.68,2598Z" transform="translate(-234.84 -102.16)"/>
    <path class="b" d="M626.67,2582.34a9.71,9.71,0,0,1,13.62-1.77,162.21,162.21,0,0,0,35.48,20.73,9.71,9.71,0,0,1,5.92,8.94,9.56,9.56,0,0,1-.78,3.79,9.71,9.71,0,0,1-12.73,5.15A181.93,181.93,0,0,1,628.45,2596,9.71,9.71,0,0,1,626.67,2582.34Z" transform="translate(-234.84 -102.16)"/>
    <path class="b" d="M739.26,2633.58h0a184.88,184.88,0,0,1-26.76-1.95,9.71,9.71,0,0,1,2.83-19.22,164.44,164.44,0,0,0,23.93,1.75h0Z" transform="translate(-234.84 -102.16)"/>
    <path class="b" d="M572.41,2591.64a219.9,219.9,0,0,0,29.8,29.28A9.71,9.71,0,1,1,590,2636a239,239,0,0,1-32.44-31.88,9.71,9.71,0,0,1,14.87-12.49Z" transform="translate(-234.84 -102.16)"/>
    <path class="b" d="M710.23,2575a9.71,9.71,0,0,1,4.43-18.91,107.88,107.88,0,0,0,24.6,2.83h0v19.42A127.31,127.31,0,0,1,710.23,2575Z" transform="translate(-234.84 -102.16)"/>
    <path class="b" d="M326.13,2650.29c-6.44-13.35-12.28-27.17-17.38-41.1a9.71,9.71,0,0,1,18.24-6.67c4.88,13.32,10.47,26.56,16.63,39.34a9.63,9.63,0,0,1,1,4.21,9.71,9.71,0,0,1-18.46,4.22Z" transform="translate(-234.84 -102.16)"/>
    <path class="b" d="M354.25,2571.2a399.86,399.86,0,0,1-10.85-43.42,9.71,9.71,0,1,1,19.07-3.65,385.46,385.46,0,0,0,10.33,41.31,10,10,0,0,1,.44,2.88,9.71,9.71,0,0,1-19,2.88Z" transform="translate(-234.84 -102.16)"/>
    <path class="b" d="M295.48,2566.59c-3.71-14.35-6.74-29.05-9-43.69a9.71,9.71,0,1,1,19.19-3c2.19,14,5.1,28.09,8.65,41.83a9.71,9.71,0,0,1-18.81,4.86Z" transform="translate(-234.84 -102.16)"/>
    <path class="b" d="M475.05,2521a272.32,272.32,0,0,0,13.82,39.83,9.71,9.71,0,1,1-17.8,7.77,290.33,290.33,0,0,1-14.8-42.68,9.71,9.71,0,1,1,18.78-4.92Z" transform="translate(-234.84 -102.16)"/>
    <path class="b" d="M532.05,2519a217.34,217.34,0,0,0,16.67,38.28,9.71,9.71,0,0,1-17,9.43A236.68,236.68,0,0,1,513.58,2525a9.71,9.71,0,1,1,18.47-6Z" transform="translate(-234.84 -102.16)"/>
    <path class="b" d="M418.61,2522.65a326.65,326.65,0,0,0,11.81,40.74,9.83,9.83,0,0,1,.58,3.31,9.71,9.71,0,0,1-18.84,3.3,344.89,344.89,0,0,1-12.52-43.17,9.71,9.71,0,1,1,19-4.18Z" transform="translate(-234.84 -102.16)"/>
  </g>
  <g>
    <path class="b" d="M451.28,4389.86a405.14,405.14,0,0,0,35.21,27.29A10.16,10.16,0,0,1,475,4433.87a426.5,426.5,0,0,1-37-28.66,10.16,10.16,0,0,1,13.31-15.35Z" transform="translate(-234.84 -102.16)"/>
    <path class="b" d="M512.61,4377.44a10.16,10.16,0,0,1,14-2.95,343.93,343.93,0,0,0,38.61,21.78,10.16,10.16,0,0,1,5.75,9.16,10,10,0,0,1-1,4.4,10.14,10.14,0,0,1-13.56,4.74,364.43,364.43,0,0,1-40.89-23.07A10.15,10.15,0,0,1,512.61,4377.44Z" transform="translate(-234.84 -102.16)"/>
    <path class="b" d="M510.73,4444.52a10.16,10.16,0,0,1,13.76-4.14,399.26,399.26,0,0,0,40.33,18.85,10.16,10.16,0,0,1-7.57,18.86,420.42,420.42,0,0,1-42.38-19.82A10.14,10.14,0,0,1,510.73,4444.52Z" transform="translate(-234.84 -102.16)"/>
    <path class="b" d="M429.51,4472.45a10.15,10.15,0,0,1,12.07-16.33c11.95,8.83,24.47,17.17,37.19,24.78a10.16,10.16,0,0,1-10.43,17.44C455.05,4490.39,442,4481.68,429.51,4472.45Z" transform="translate(-234.84 -102.16)"/>
    <path class="b" d="M594.52,4480.56a10.16,10.16,0,0,1,12.5-7.08,401.32,401.32,0,0,0,43.52,9.44,10.17,10.17,0,0,1,8.56,10,9.8,9.8,0,0,1-.13,1.61,10.16,10.16,0,0,1-11.63,8.44,422,422,0,0,1-45.73-9.93A10.17,10.17,0,0,1,594.52,4480.56Z" transform="translate(-234.84 -102.16)"/>
    <path class="b" d="M330.46,4374.13c-9.31-12.4-18.11-25.4-26.17-38.64a10.16,10.16,0,1,1,17.36-10.56c7.71,12.68,16.14,25.13,25.06,37a10.16,10.16,0,1,1-16.25,12.19Z" transform="translate(-234.84 -102.16)"/>
    <path class="b" d="M415.08,4293.82a364.46,364.46,0,0,1-24.24-40.26,10.15,10.15,0,1,1,18-9.33,343.24,343.24,0,0,0,22.89,38,10.16,10.16,0,0,1-16.69,11.58Z" transform="translate(-234.84 -102.16)"/>
    <path class="b" d="M593.46,4292.08a10.15,10.15,0,0,1,13.74-4.19,227.22,227.22,0,0,0,40.34,16.72,10.16,10.16,0,1,1-5.93,19.43,247.68,247.68,0,0,1-44-18.22A10.14,10.14,0,0,1,593.46,4292.08Z" transform="translate(-234.84 -102.16)"/>
    <path class="b" d="M531,4305.86a287.57,287.57,0,0,0,35.88,25.6,10.16,10.16,0,0,1-10.49,17.4,309.33,309.33,0,0,1-38.43-27.42,10.16,10.16,0,0,1,13-15.58Z" transform="translate(-234.84 -102.16)"/>
    <path class="b" d="M459.36,4317a346.61,346.61,0,0,0,31.81,30.93,10.16,10.16,0,0,1-13.2,15.44,366.55,366.55,0,0,1-33.68-32.74A10.16,10.16,0,1,1,459.36,4317Z" transform="translate(-234.84 -102.16)"/>
    <path class="b" d="M714.14,4161.37h0a74,74,0,0,1-33.5-7.92,10.16,10.16,0,1,1,9.13-18.15,53.77,53.77,0,0,0,24.37,5.75h0Z" transform="translate(-234.84 -102.16)"/>
    <path class="b" d="M593,4356.79a10.16,10.16,0,0,1,13.25-5.57,284.73,284.73,0,0,0,42,13.44,10.15,10.15,0,0,1,7.83,9.88,10,10,0,0,1-.28,2.34,10.16,10.16,0,0,1-12.22,7.55,304.6,304.6,0,0,1-45-14.4A10.16,10.16,0,0,1,593,4356.79Z" transform="translate(-234.84 -102.16)"/>
    <path class="b" d="M509.51,4520.32a10.16,10.16,0,0,1,8.68-18.37c13.43,6.35,27.32,12.1,41.29,17.09a10.16,10.16,0,0,1-6.85,19.13C538,4533,523.54,4527,509.51,4520.32Z" transform="translate(-234.84 -102.16)"/>
    <path class="b" d="M679.87,4554.78a10.16,10.16,0,0,1,10.66-9.63c7.83.4,15.78.6,23.61.6h0v20.31h0c-8.17,0-16.47-.21-24.64-.62A10.18,10.18,0,0,1,679.87,4554.78Z" transform="translate(-234.84 -102.16)"/>
    <path class="b" d="M404.37,4372.64a426.64,426.64,0,0,1-29.81-36.09,10.16,10.16,0,0,1,16.36-12.05,403.14,403.14,0,0,0,28.38,34.35,10.16,10.16,0,1,1-14.93,13.79Z" transform="translate(-234.84 -102.16)"/>
    <path class="b" d="M348.92,4297.39a421.37,421.37,0,0,1-21.14-41.77,10.16,10.16,0,1,1,18.61-8.15,400.19,400.19,0,0,0,20.12,39.75,10.16,10.16,0,0,1-17.59,10.17Z" transform="translate(-234.84 -102.16)"/>
    <path class="b" d="M714.14,4334.81h0a250.67,250.67,0,0,1-25.9-1.34,10.16,10.16,0,1,1,2.1-20.21,229.75,229.75,0,0,0,23.8,1.23h0Z" transform="translate(-234.84 -102.16)"/>
    <path class="b" d="M693.89,4507.77a10.16,10.16,0,0,1,1-20.29c6.37.3,12.86.45,19.29.46h0v20.31h0C707.38,4508.25,700.57,4508.09,693.89,4507.77Z" transform="translate(-234.84 -102.16)"/>
    <path class="b" d="M654.61,4552.27a10.16,10.16,0,0,1-11.54,8.56c-15.35-2.28-30.75-5.35-45.77-9.11a10.16,10.16,0,0,1,4.94-19.71c14.38,3.6,29.12,6.54,43.82,8.72a10.16,10.16,0,0,1,8.66,10A9.55,9.55,0,0,1,654.61,4552.27Z" transform="translate(-234.84 -102.16)"/>
    <path class="b" d="M657.56,4434a10.56,10.56,0,0,1-.18,1.92A10.15,10.15,0,0,1,645.5,4444a365,365,0,0,1-45.48-11.8,10.16,10.16,0,1,1,6.37-19.29A340.63,340.63,0,0,0,649.31,4424,10.16,10.16,0,0,1,657.56,4434Z" transform="translate(-234.84 -102.16)"/>
    <path class="b" d="M690.18,4391.7a10.16,10.16,0,0,1,1.57-20.26c7.4.57,14.93.87,22.39.87h0v20.31h0C706.16,4392.62,698.1,4392.31,690.18,4391.7Z" transform="translate(-234.84 -102.16)"/>
    <path class="b" d="M682.57,4439a10.17,10.17,0,0,1,10.75-9.54c6.91.42,13.91.63,20.82.62h0v20.32c-7.31,0-14.72-.22-22-.66A10.13,10.13,0,0,1,682.57,4439Z" transform="translate(-234.84 -102.16)"/>
    <path class="b" d="M360.25,4410.06a10.16,10.16,0,0,1,15-13.71c10,11,20.7,21.56,31.72,31.49a10.15,10.15,0,0,1-13.59,15.09C381.86,4432.57,370.72,4421.51,360.25,4410.06Z" transform="translate(-234.84 -102.16)"/>
    <path class="b" d="M584.77,4115.49a133.67,133.67,0,0,1-3-28.82h20.29a112.76,112.76,0,0,0,2.55,24.42,10.46,10.46,0,0,1,.24,2.21,10.16,10.16,0,0,1-20.08,2.19Z" transform="translate(-234.84 -102.16)"/>
    <path class="b" d="M526.08,4116.07a192,192,0,0,1-2.16-29.4h20.3a171.79,171.79,0,0,0,1.93,26.29,10.38,10.38,0,0,1,.12,1.57,10.15,10.15,0,0,1-20.19,1.54Z" transform="translate(-234.84 -102.16)"/>
    <path class="b" d="M467.83,4116.91a251.37,251.37,0,0,1-1.75-30.24h20.3a233.45,233.45,0,0,0,1.61,27.79,10.46,10.46,0,0,1,.08,1.24,10.16,10.16,0,0,1-20.24,1.21Z" transform="translate(-234.84 -102.16)"/>
    <path class="b" d="M664.79,4111.68a10.16,10.16,0,0,1-19.52,3.95,74.65,74.65,0,0,1-5.73-29h20.29a54.47,54.47,0,0,0,4.16,21.08A10,10,0,0,1,664.79,4111.68Z" transform="translate(-234.84 -102.16)"/>
    <path class="b" d="M558.1,4154.26a170,170,0,0,0,22,37,10.16,10.16,0,1,1-16,12.51,190.6,190.6,0,0,1-24.61-41.39,10.16,10.16,0,1,1,18.64-8.09Z" transform="translate(-234.84 -102.16)"/>
    <path class="b" d="M607,4146.6a10.15,10.15,0,0,1,14.1,2.74A112.3,112.3,0,0,0,650.37,4179a10.16,10.16,0,0,1-11.57,16.7,132.24,132.24,0,0,1-34.57-35A10.14,10.14,0,0,1,607,4146.6Z" transform="translate(-234.84 -102.16)"/>
    <path class="b" d="M293.85,4120c-.85-11-1.27-22.18-1.27-33.28H312.9c0,10.58.39,21.22,1.21,31.7,0,.26,0,.53,0,.8a10.16,10.16,0,0,1-20.29.78Z" transform="translate(-234.84 -102.16)"/>
    <path class="b" d="M409.76,4117.86a311.07,311.07,0,0,1-1.51-31.19h20.31a291.32,291.32,0,0,0,1.41,29.15,9.05,9.05,0,0,1,0,1,10.16,10.16,0,0,1-20.26,1Z" transform="translate(-234.84 -102.16)"/>
    <path class="b" d="M235.56,4114.82c-.54-9.31-.72-18.75-.72-28.15h20.31c0,9,.18,18.05.69,27,0,.2,0,.4,0,.6a10.16,10.16,0,0,1-20.3.57Z" transform="translate(-234.84 -102.16)"/>
    <path class="b" d="M351.78,4118.9c-.93-10.66-1.36-21.48-1.36-32.23h20.31c0,10.16.41,20.38,1.29,30.45,0,.31,0,.61,0,.9a10.16,10.16,0,0,1-20.28.88Z" transform="translate(-234.84 -102.16)"/>
    <path class="b" d="M697.26,4086.67h13.46a3.43,3.43,0,0,0,3.42,3.43h0v13.45h0A16.9,16.9,0,0,1,697.26,4086.67Z" transform="translate(-234.84 -102.16)"/>
    <path class="b" d="M473,4239.78a287.24,287.24,0,0,0,26.47,35.27,10.16,10.16,0,0,1-15.27,13.41,309,309,0,0,1-28.34-37.78,10.16,10.16,0,0,1,17.14-10.9Z" transform="translate(-234.84 -102.16)"/>
    <path class="b" d="M596.37,4223.4a10.16,10.16,0,0,1,14.25-1.86,169.94,169.94,0,0,0,37.12,21.69,10.16,10.16,0,0,1-8,18.7,190.76,190.76,0,0,1-41.56-24.29A10.17,10.17,0,0,1,596.37,4223.4Z" transform="translate(-234.84 -102.16)"/>
    <path class="b" d="M714.14,4277h0a194.55,194.55,0,0,1-28-2.05,10.16,10.16,0,0,1,3-20.1,172.19,172.19,0,0,0,25,1.83h0Z" transform="translate(-234.84 -102.16)"/>
    <path class="b" d="M539.62,4233.13a229.52,229.52,0,0,0,31.17,30.62A10.16,10.16,0,0,1,558,4279.53a249.21,249.21,0,0,1-33.93-33.34,10.15,10.15,0,1,1,15.55-13.06Z" transform="translate(-234.84 -102.16)"/>
    <path class="b" d="M683.78,4215.68a10.15,10.15,0,1,1,4.64-19.77,113.13,113.13,0,0,0,25.72,3h0v20.31A132.72,132.72,0,0,1,683.78,4215.68Z" transform="translate(-234.84 -102.16)"/>
    <path class="b" d="M282,4294.48c-6.73-14-12.84-28.43-18.17-43a10.15,10.15,0,0,1,19.07-7c5.1,13.94,11,27.79,17.4,41.16a10,10,0,0,1,1,4.4,10.16,10.16,0,0,1-19.31,4.42Z" transform="translate(-234.84 -102.16)"/>
    <path class="b" d="M311.43,4211.74a419.12,419.12,0,0,1-11.35-45.41,10.16,10.16,0,0,1,19.95-3.82,398.33,398.33,0,0,0,10.8,43.21,10.16,10.16,0,1,1-19.4,6Z" transform="translate(-234.84 -102.16)"/>
    <path class="b" d="M250,4206.92c-3.88-15-7.06-30.38-9.45-45.7a10.16,10.16,0,1,1,20.07-3.14c2.29,14.67,5.34,29.39,9.05,43.76a10.16,10.16,0,0,1-19.67,5.08Z" transform="translate(-234.84 -102.16)"/>
    <path class="b" d="M437.79,4159.19a284.82,284.82,0,0,0,14.45,41.67,10.07,10.07,0,0,1,.85,4.06,10.16,10.16,0,0,1-19.47,4.06,304.57,304.57,0,0,1-15.48-44.65,10.16,10.16,0,0,1,19.65-5.14Z" transform="translate(-234.84 -102.16)"/>
    <path class="b" d="M497.41,4157.1a226.76,226.76,0,0,0,17.43,40,10.16,10.16,0,0,1-17.76,9.87,247.26,247.26,0,0,1-19-43.64,10.16,10.16,0,0,1,19.32-6.27Z" transform="translate(-234.84 -102.16)"/>
    <path class="b" d="M378.74,4161a342.17,342.17,0,0,0,12.36,42.62,10.16,10.16,0,1,1-19.1,6.91,362.12,362.12,0,0,1-13.09-45.16,10.15,10.15,0,1,1,19.83-4.37Z" transform="translate(-234.84 -102.16)"/>
  </g>
  <g>
    <path class="b" d="M451.28,3782.87a405.14,405.14,0,0,1,35.21-27.29A10.16,10.16,0,1,0,475,3738.86a424.66,424.66,0,0,0-37,28.67,10.15,10.15,0,1,0,13.31,15.34Z" transform="translate(-234.84 -102.16)"/>
    <path class="b" d="M512.61,3795.29a10.15,10.15,0,0,0,14,2.95,343.93,343.93,0,0,1,38.61-21.78,10.16,10.16,0,0,0,5.75-9.16,10,10,0,0,0-1-4.4,10.14,10.14,0,0,0-13.56-4.74,364.43,364.43,0,0,0-40.89,23.07A10.15,10.15,0,0,0,512.61,3795.29Z" transform="translate(-234.84 -102.16)"/>
    <path class="b" d="M510.73,3728.21a10.15,10.15,0,0,0,13.76,4.14,399.26,399.26,0,0,1,40.33-18.85,10.16,10.16,0,0,0-7.57-18.86,420.42,420.42,0,0,0-42.38,19.82A10.14,10.14,0,0,0,510.73,3728.21Z" transform="translate(-234.84 -102.16)"/>
    <path class="b" d="M429.51,3700.28a10.15,10.15,0,1,0,12.07,16.33c11.95-8.83,24.47-17.17,37.19-24.78a10.16,10.16,0,0,0-10.43-17.44C455.05,3682.35,442,3691.05,429.51,3700.28Z" transform="translate(-234.84 -102.16)"/>
    <path class="b" d="M594.52,3692.17a10.16,10.16,0,0,0,12.5,7.08,401.32,401.32,0,0,1,43.52-9.44,10.17,10.17,0,0,0,8.56-10,9.8,9.8,0,0,0-.13-1.61,10.15,10.15,0,0,0-11.63-8.43,422,422,0,0,0-45.73,9.92A10.17,10.17,0,0,0,594.52,3692.17Z" transform="translate(-234.84 -102.16)"/>
    <path class="b" d="M330.46,3798.6c-9.31,12.4-18.11,25.4-26.17,38.64a10.16,10.16,0,1,0,17.36,10.56c7.71-12.68,16.14-25.13,25.06-37a10.16,10.16,0,1,0-16.25-12.19Z" transform="translate(-234.84 -102.16)"/>
    <path class="b" d="M415.08,3878.91a364.46,364.46,0,0,0-24.24,40.26,10.15,10.15,0,1,0,18,9.33,343.24,343.24,0,0,1,22.89-38,10.16,10.16,0,0,0-16.69-11.58Z" transform="translate(-234.84 -102.16)"/>
    <path class="b" d="M593.46,3880.66a10.16,10.16,0,0,0,13.74,4.18,227.22,227.22,0,0,1,40.34-16.72,10.16,10.16,0,0,0-5.93-19.43,247.68,247.68,0,0,0-44,18.22A10.15,10.15,0,0,0,593.46,3880.66Z" transform="translate(-234.84 -102.16)"/>
    <path class="b" d="M531,3866.87a288.61,288.61,0,0,1,35.88-25.6,10.15,10.15,0,1,0-10.49-17.39,308.21,308.21,0,0,0-38.43,27.41,10.16,10.16,0,0,0,13,15.58Z" transform="translate(-234.84 -102.16)"/>
    <path class="b" d="M459.36,3855.75a345.2,345.2,0,0,1,31.81-30.92,10.16,10.16,0,0,0-13.2-15.45,367.86,367.86,0,0,0-33.68,32.74,10.16,10.16,0,1,0,15.07,13.63Z" transform="translate(-234.84 -102.16)"/>
    <path class="b" d="M714.14,4011.36h0a74,74,0,0,0-33.5,7.92,10.16,10.16,0,0,0,9.13,18.15,53.9,53.9,0,0,1,24.37-5.75h0Z" transform="translate(-234.84 -102.16)"/>
    <path class="b" d="M593,3816a10.17,10.17,0,0,0,13.25,5.56,284.73,284.73,0,0,1,42-13.44,10.15,10.15,0,0,0,7.83-9.88,10,10,0,0,0-.28-2.34,10.16,10.16,0,0,0-12.22-7.55,305.78,305.78,0,0,0-45,14.4A10.16,10.16,0,0,0,593,3816Z" transform="translate(-234.84 -102.16)"/>
    <path class="b" d="M509.51,3652.41a10.16,10.16,0,0,0,8.68,18.37c13.43-6.35,27.32-12.1,41.29-17.09a10.16,10.16,0,0,0-6.85-19.13C538,3639.78,523.54,3645.78,509.51,3652.41Z" transform="translate(-234.84 -102.16)"/>
    <path class="b" d="M679.87,3618a10.16,10.16,0,0,0,10.66,9.63c7.83-.4,15.78-.6,23.61-.6h0v-20.31h0c-8.17,0-16.47.21-24.64.62A10.18,10.18,0,0,0,679.87,3618Z" transform="translate(-234.84 -102.16)"/>
    <path class="b" d="M404.37,3800.1a426.5,426.5,0,0,0-29.81,36.08,10.16,10.16,0,0,0,16.36,12.05,403.14,403.14,0,0,1,28.38-34.35,10.16,10.16,0,0,0-14.93-13.78Z" transform="translate(-234.84 -102.16)"/>
    <path class="b" d="M348.92,3875.34a422.47,422.47,0,0,0-21.14,41.77,10.16,10.16,0,0,0,18.61,8.15,400.19,400.19,0,0,1,20.12-39.75,10.16,10.16,0,0,0-17.59-10.17Z" transform="translate(-234.84 -102.16)"/>
    <path class="b" d="M714.14,3837.92h0a253.49,253.49,0,0,0-25.9,1.34,10.16,10.16,0,1,0,2.1,20.21,229.75,229.75,0,0,1,23.8-1.23h0Z" transform="translate(-234.84 -102.16)"/>
    <path class="b" d="M693.89,3665a10.16,10.16,0,0,0,1,20.29c6.37-.3,12.86-.45,19.29-.45h0v-20.32h0C707.38,3664.48,700.57,3664.64,693.89,3665Z" transform="translate(-234.84 -102.16)"/>
    <path class="b" d="M654.61,3620.46a10.15,10.15,0,0,0-11.54-8.55c-15.35,2.28-30.75,5.34-45.77,9.1a10.16,10.16,0,0,0,4.94,19.71c14.38-3.6,29.12-6.54,43.82-8.72a10.16,10.16,0,0,0,8.66-10A9.55,9.55,0,0,0,654.61,3620.46Z" transform="translate(-234.84 -102.16)"/>
    <path class="b" d="M657.56,3738.75a10.37,10.37,0,0,0-.18-1.91,10.15,10.15,0,0,0-11.88-8.07A363.25,363.25,0,0,0,600,3740.56a10.16,10.16,0,1,0,6.37,19.29,342.34,342.34,0,0,1,42.92-11.13A10.16,10.16,0,0,0,657.56,3738.75Z" transform="translate(-234.84 -102.16)"/>
    <path class="b" d="M690.18,3781a10.16,10.16,0,1,0,1.57,20.25c7.4-.57,14.93-.86,22.39-.87h0v-20.31h0C706.16,3780.11,698.1,3780.42,690.18,3781Z" transform="translate(-234.84 -102.16)"/>
    <path class="b" d="M682.57,3733.7a10.17,10.17,0,0,0,10.75,9.53c6.91-.42,13.91-.62,20.82-.62h0v-20.32c-7.31,0-14.72.22-22,.66A10.14,10.14,0,0,0,682.57,3733.7Z" transform="translate(-234.84 -102.16)"/>
    <path class="b" d="M360.25,3762.67a10.16,10.16,0,1,0,15,13.71c10-11,20.7-21.56,31.72-31.49a10.15,10.15,0,0,0-13.59-15.09C381.86,3740.16,370.72,3751.22,360.25,3762.67Z" transform="translate(-234.84 -102.16)"/>
    <path class="b" d="M584.77,4057.25a133.51,133.51,0,0,0-3,28.81h20.29a112.76,112.76,0,0,1,2.55-24.42,10.43,10.43,0,0,0,.24-2.2,10.16,10.16,0,0,0-20.08-2.19Z" transform="translate(-234.84 -102.16)"/>
    <path class="b" d="M526.08,4056.66a192,192,0,0,0-2.16,29.4h20.3a171.66,171.66,0,0,1,1.93-26.28,10.58,10.58,0,0,0,.12-1.57,10.15,10.15,0,0,0-20.19-1.55Z" transform="translate(-234.84 -102.16)"/>
    <path class="b" d="M467.83,4055.82a251.37,251.37,0,0,0-1.75,30.24h20.3a233.45,233.45,0,0,1,1.61-27.79,10.46,10.46,0,0,0,.08-1.24,10.16,10.16,0,0,0-20.24-1.21Z" transform="translate(-234.84 -102.16)"/>
    <path class="b" d="M664.79,4061.05a10.16,10.16,0,0,0-19.52-4,74.65,74.65,0,0,0-5.73,29h20.29A54.47,54.47,0,0,1,664,4065,9.94,9.94,0,0,0,664.79,4061.05Z" transform="translate(-234.84 -102.16)"/>
    <path class="b" d="M558.1,4018.47a170,170,0,0,1,22-37,10.16,10.16,0,1,0-16-12.5,190.36,190.36,0,0,0-24.61,41.39,10.16,10.16,0,1,0,18.64,8.08Z" transform="translate(-234.84 -102.16)"/>
    <path class="b" d="M607,4026.13a10.15,10.15,0,0,0,14.1-2.74,112.3,112.3,0,0,1,29.31-29.65,10.16,10.16,0,0,0,4.37-8.36,10,10,0,0,0-1.81-5.77A10.16,10.16,0,0,0,638.8,3977a132.24,132.24,0,0,0-34.57,35A10.14,10.14,0,0,0,607,4026.13Z" transform="translate(-234.84 -102.16)"/>
    <path class="b" d="M293.85,4052.78c-.85,11-1.27,22.18-1.27,33.28H312.9c0-10.57.39-21.22,1.21-31.69q0-.4,0-.81a10.16,10.16,0,0,0-20.29-.78Z" transform="translate(-234.84 -102.16)"/>
    <path class="b" d="M409.76,4054.87a311.07,311.07,0,0,0-1.51,31.19h20.31a291.32,291.32,0,0,1,1.41-29.15,9,9,0,0,0,0-1,10.16,10.16,0,0,0-20.26-1Z" transform="translate(-234.84 -102.16)"/>
    <path class="b" d="M235.56,4057.91c-.54,9.31-.72,18.75-.72,28.15h20.31c0-9,.18-18,.69-27,0-.2,0-.4,0-.59a10.16,10.16,0,0,0-20.3-.58Z" transform="translate(-234.84 -102.16)"/>
    <path class="b" d="M351.78,4053.83c-.93,10.66-1.36,21.48-1.36,32.23h20.31c0-10.15.41-20.38,1.29-30.45,0-.3,0-.6,0-.9a10.16,10.16,0,0,0-20.28-.88Z" transform="translate(-234.84 -102.16)"/>
    <path class="b" d="M697.26,4086.06h13.46a3.43,3.43,0,0,1,3.42-3.43h0v-13.45h0A16.9,16.9,0,0,0,697.26,4086.06Z" transform="translate(-234.84 -102.16)"/>
    <path class="b" d="M473,3933a288.77,288.77,0,0,1,26.47-35.27,10.16,10.16,0,0,0-15.27-13.4,308.09,308.09,0,0,0-28.34,37.77A10.16,10.16,0,1,0,473,3933Z" transform="translate(-234.84 -102.16)"/>
    <path class="b" d="M596.37,3949.33a10.16,10.16,0,0,0,14.25,1.86,170.34,170.34,0,0,1,37.12-21.69,10.16,10.16,0,1,0-8-18.69,190.31,190.31,0,0,0-41.56,24.28A10.17,10.17,0,0,0,596.37,3949.33Z" transform="translate(-234.84 -102.16)"/>
    <path class="b" d="M714.14,3895.74h0a193.12,193.12,0,0,0-28,2,10.16,10.16,0,0,0,3,20.1,172.19,172.19,0,0,1,25-1.83h0Z" transform="translate(-234.84 -102.16)"/>
    <path class="b" d="M539.62,3939.61A229.59,229.59,0,0,1,570.79,3909,10.16,10.16,0,0,0,558,3893.2a249.21,249.21,0,0,0-33.93,33.34,10.16,10.16,0,0,0,15.55,13.07Z" transform="translate(-234.84 -102.16)"/>
    <path class="b" d="M683.78,3957.05a10.16,10.16,0,0,0,4.64,19.78,112,112,0,0,1,25.72-3h0v-20.32A132.72,132.72,0,0,0,683.78,3957.05Z" transform="translate(-234.84 -102.16)"/>
    <path class="b" d="M282,3878.26c-6.73,14-12.84,28.43-18.17,43a10.15,10.15,0,1,0,19.07,7c5.1-13.94,11-27.79,17.4-41.16a10,10,0,0,0,1-4.4,10.16,10.16,0,0,0-19.31-4.41Z" transform="translate(-234.84 -102.16)"/>
    <path class="b" d="M311.43,3961a419.12,419.12,0,0,0-11.35,45.41,10.16,10.16,0,1,0,19.95,3.82,398.33,398.33,0,0,1,10.8-43.21,10.16,10.16,0,1,0-19.4-6Z" transform="translate(-234.84 -102.16)"/>
    <path class="b" d="M250,3965.81c-3.88,15-7.06,30.39-9.45,45.7a10.16,10.16,0,1,0,20.07,3.14c2.29-14.67,5.34-29.39,9.05-43.76a10.16,10.16,0,0,0-19.67-5.08Z" transform="translate(-234.84 -102.16)"/>
    <path class="b" d="M437.79,4013.54a284.29,284.29,0,0,1,14.45-41.66,10.16,10.16,0,1,0-18.62-8.13,305.38,305.38,0,0,0-15.48,44.65,10.16,10.16,0,0,0,19.65,5.14Z" transform="translate(-234.84 -102.16)"/>
    <path class="b" d="M497.41,4015.63a226.76,226.76,0,0,1,17.43-40,10.16,10.16,0,0,0-17.76-9.86,247.17,247.17,0,0,0-19,43.63,10.16,10.16,0,1,0,19.32,6.27Z" transform="translate(-234.84 -102.16)"/>
    <path class="b" d="M378.74,4011.77a342.67,342.67,0,0,1,12.36-42.62,10.16,10.16,0,0,0-19.1-6.91,362.12,362.12,0,0,0-13.09,45.16,10.15,10.15,0,1,0,19.83,4.37Z" transform="translate(-234.84 -102.16)"/>
  </g>
  <g>
    <path class="c" d="M800.81,593.17h0a0,0,0,0,1,0,0v430.5a0,0,0,0,1,0,0H735.55a0,0,0,0,1,0,0V658.43A65.26,65.26,0,0,1,800.81,593.17Z" transform="translate(-275.07 1474.44) rotate(-90)"/>
    <g>
      <path class="d" d="M971,827.83H629.72a52.09,52.09,0,0,1-52.08-52.09h0" transform="translate(-234.84 -102.16)"/>
      <path class="d" d="M971,810.63H636.78a34.89,34.89,0,0,1-34.88-34.89h0" transform="translate(-234.84 -102.16)"/>
      <path class="d" d="M971,793.19H642.78a17.44,17.44,0,0,1-17.44-17.45h0" transform="translate(-234.84 -102.16)"/>
    </g>
  </g>
  <g>
    <path class="e" d="M707.8,522.55h0a0,0,0,0,1,0,0V953.09a0,0,0,0,1,0,0H632a0,0,0,0,1,0,0V598.31A75.76,75.76,0,0,1,707.8,522.55Z" transform="translate(-302.74 1305.58) rotate(-90)"/>
    <g>
      <path class="f" d="M870.77,760.36h-327a60.46,60.46,0,0,1-60.46-60.47h0" transform="translate(-234.84 -102.16)"/>
      <path class="f" d="M870.77,740.39H552a40.5,40.5,0,0,1-40.5-40.5h0" transform="translate(-234.84 -102.16)"/>
      <path class="f" d="M870.77,720.14H559a20.25,20.25,0,0,1-20.24-20.25h0" transform="translate(-234.84 -102.16)"/>
    </g>
  </g>
  <g>
    <g>
      <circle class="c" cx="947.1" cy="641.54" r="15.4"/>
      <circle class="g" cx="941.75" cy="647.13" r="13.38"/>
    </g>
    <g>
      <circle class="h" cx="652.73" cy="763.95" r="8.11"/>
      <circle class="i" cx="652.73" cy="763.95" r="13.38"/>
    </g>
    <g>
      <circle class="e" cx="738.14" cy="792.57" r="15.4"/>
      <circle class="i" cx="748.64" cy="801.3" r="13.38"/>
    </g>
    <g>
      <circle class="j" cx="917.39" cy="795.1" r="20.39"/>
      <circle class="i" cx="917.39" cy="795.1" r="13.38"/>
    </g>
  </g>
  <g>
    <path class="e" d="M1165.88,787.46h0a0,0,0,0,1,0,0V890a0,0,0,0,1,0,0H1063.34a0,0,0,0,1,0,0v0A102.54,102.54,0,0,1,1165.88,787.46Z" transform="translate(1994.39 1575.32) rotate(180)"/>
    <path class="c" d="M1021.54,862.22h0a70.05,70.05,0,0,1,70.05,70.05v0a0,0,0,0,1,0,0h-70.06a0,0,0,0,1,0,0V862.22A0,0,0,0,1,1021.54,862.22Z" transform="translate(1878.3 1692.36) rotate(180)"/>
    <g>
      <path class="j" d="M1130,699.89h-42.75A83.13,83.13,0,0,1,1004.1,783v42.76A125.89,125.89,0,0,0,1130,699.89Z" transform="translate(-234.84 -102.16)"/>
      <path class="g" d="M1004.58,846.35V762.51A62.62,62.62,0,0,1,942,699.89H858.15A146.44,146.44,0,0,0,1004.58,846.35Z" transform="translate(-234.84 -102.16)"/>
      <path class="h" d="M1004.1,825.13A125.23,125.23,0,0,1,878.88,699.89h21.23a104,104,0,0,0,104,104Z" transform="translate(-234.84 -102.16)"/>
      <g>
        <path class="k" d="M1150.77,699.89a146.2,146.2,0,0,1-146.19,146.22" transform="translate(-234.84 -102.16)"/>
        <path class="k" d="M1108.56,699.89a104,104,0,0,1-104,104" transform="translate(-234.84 -102.16)"/>
        <path class="k" d="M1108.56,699.89a104,104,0,0,1-104,104" transform="translate(-234.84 -102.16)"/>
        <path class="k" d="M1087.59,699.89a83,83,0,0,1-83,83" transform="translate(-234.84 -102.16)"/>
        <path class="k" d="M1066.61,699.89a62,62,0,0,1-62,62" transform="translate(-234.84 -102.16)"/>
        <path class="k" d="M1129.8,699.89a125.23,125.23,0,0,1-125.22,125.24" transform="translate(-234.84 -102.16)"/>
      </g>
    </g>
    <g>
      <line class="k" x1="769.74" y1="750.57" x2="769.74" y2="652.91"/>
      <line class="k" x1="730.25" y1="745" x2="755.53" y2="650.67"/>
      <line class="k" x1="693.55" y1="729.4" x2="742.38" y2="644.83"/>
      <line class="k" x1="662.14" y1="704.84" x2="731.19" y2="635.78"/>
      <line class="k" x1="638.15" y1="672.98" x2="722.73" y2="624.15"/>
      <line class="k" x1="623.23" y1="636" x2="717.56" y2="610.73"/>
    </g>
  </g>
  <g>
    <path class="c" d="M735.55,376.49h65.27a0,0,0,0,1,0,0V807a0,0,0,0,1,0,0h0a65.26,65.26,0,0,1-65.26-65.26V376.49a0,0,0,0,1,0,0Z" transform="translate(1125.08 -278.61) rotate(90)"/>
    <g>
      <path class="d" d="M971,572.32H629.72a52.09,52.09,0,0,0-52.08,52.09h0" transform="translate(-234.84 -102.16)"/>
      <path class="d" d="M971,589.52H636.78a34.89,34.89,0,0,0-34.88,34.89h0" transform="translate(-234.84 -102.16)"/>
      <path class="d" d="M971,607H642.78a17.44,17.44,0,0,0-17.44,17.45h0" transform="translate(-234.84 -102.16)"/>
    </g>
  </g>
  <g>
    <path class="e" d="M632,447.06h75.77a0,0,0,0,1,0,0V877.6a0,0,0,0,1,0,0h0A75.76,75.76,0,0,1,632,801.84V447.06A0,0,0,0,1,632,447.06Z" transform="translate(1097.41 -109.75) rotate(90)"/>
    <g>
      <path class="f" d="M870.77,639.79h-327a60.46,60.46,0,0,0-60.46,60.47h0" transform="translate(-234.84 -102.16)"/>
      <path class="f" d="M870.77,659.76H552a40.5,40.5,0,0,0-40.5,40.5h0" transform="translate(-234.84 -102.16)"/>
      <path class="f" d="M870.77,680H559a20.25,20.25,0,0,0-20.24,20.25h0" transform="translate(-234.84 -102.16)"/>
    </g>
  </g>
  <g>
    <circle class="h" cx="652.73" cy="431.88" r="8.11"/>
    <circle class="i" cx="652.73" cy="431.88" r="13.38"/>
  </g>
  <path class="g" d="M281.59,248.24H402.35a0,0,0,0,1,0,0v380a0,0,0,0,1,0,0h-9.6A111.15,111.15,0,0,1,281.59,517V248.24a0,0,0,0,1,0,0Z" transform="translate(449.1 774.28) rotate(-180)"/>
  <g>
    <circle class="e" cx="738.14" cy="403.26" r="15.4"/>
    <circle class="i" cx="748.64" cy="394.54" r="13.38"/>
  </g>
  <g>
    <circle class="j" cx="917.39" cy="400.73" r="20.39"/>
    <circle class="i" cx="917.39" cy="400.73" r="13.38"/>
  </g>
  <g>
    <path class="e" d="M1063.34,510.12h102.55a0,0,0,0,1,0,0V612.69a0,0,0,0,1,0,0h0a102.54,102.54,0,0,1-102.54-102.54v0A0,0,0,0,1,1063.34,510.12Z" transform="translate(1994.39 1020.66) rotate(180)"/>
    <path class="c" d="M1021.54,467.85h70.06a0,0,0,0,1,0,0v0a70.05,70.05,0,0,1-70.05,70.05h0a0,0,0,0,1,0,0V467.85A0,0,0,0,1,1021.54,467.85Z" transform="translate(1878.3 903.62) rotate(180)"/>
    <g>
      <path class="j" d="M1130,700.26h-42.75a83.13,83.13,0,0,0-83.12-83.14V574.36A125.89,125.89,0,0,1,1130,700.26Z" transform="translate(-234.84 -102.16)"/>
      <path class="g" d="M1004.58,553.8v83.84A62.62,62.62,0,0,0,942,700.26H858.15A146.44,146.44,0,0,1,1004.58,553.8Z" transform="translate(-234.84 -102.16)"/>
      <path class="h" d="M1004.1,575A125.23,125.23,0,0,0,878.88,700.26h21.23a104,104,0,0,1,104-104Z" transform="translate(-234.84 -102.16)"/>
      <g>
        <path class="k" d="M1150.77,700.26A146.2,146.2,0,0,0,1004.58,554" transform="translate(-234.84 -102.16)"/>
        <path class="k" d="M1108.56,700.26a104,104,0,0,0-104-104" transform="translate(-234.84 -102.16)"/>
        <path class="k" d="M1108.56,700.26a104,104,0,0,0-104-104" transform="translate(-234.84 -102.16)"/>
        <path class="k" d="M1087.59,700.26a83,83,0,0,0-83-83" transform="translate(-234.84 -102.16)"/>
        <path class="k" d="M1066.61,700.26a62,62,0,0,0-62-62" transform="translate(-234.84 -102.16)"/>
        <path class="k" d="M1129.8,700.26A125.23,125.23,0,0,0,1004.58,575" transform="translate(-234.84 -102.16)"/>
      </g>
    </g>
    <g>
      <line class="k" x1="769.74" y1="445.27" x2="769.74" y2="542.93"/>
      <line class="k" x1="730.25" y1="450.83" x2="755.53" y2="545.17"/>
      <line class="k" x1="693.55" y1="466.43" x2="742.38" y2="551.01"/>
      <line class="k" x1="662.14" y1="490.99" x2="731.19" y2="560.05"/>
      <line class="k" x1="638.15" y1="522.85" x2="722.73" y2="571.68"/>
      <line class="k" x1="623.23" y1="559.83" x2="717.56" y2="585.11"/>
    </g>
  </g>
  <g>
    <path class="l" d="M595.38,536.5c10.45,9.09,13.91,22.24,13.91,22.24s-13.5-1.6-23.95-10.69-13.91-22.24-13.91-22.24S584.93,527.41,595.38,536.5Z" transform="translate(-234.84 -102.16)"/>
    <path class="c" d="M655.63,500.62a46.49,46.49,0,0,0-93,0Z" transform="translate(-234.84 -102.16)"/>
    <path class="e" d="M638.87,500.62a29.73,29.73,0,0,0-59.46,0Z" transform="translate(-234.84 -102.16)"/>
    <g>
      <g>
        <path class="g" d="M623.72,572.94a54.71,54.71,0,0,0-14.58,21.47A50.81,50.81,0,0,0,647,561.47,54.88,54.88,0,0,0,623.72,572.94Z" transform="translate(-234.84 -102.16)"/>
        <line class="m" x1="374.45" y1="347.5" x2="374.45" y2="568.74"/>
      </g>
      <line class="m" x1="365.6" y1="348.27" x2="374.45" y2="398.31"/>
      <line class="m" x1="357.02" y1="350.57" x2="374.45" y2="398.31"/>
      <line class="m" x1="348.97" y1="354.33" x2="374.45" y2="398.31"/>
      <line class="m" x1="341.69" y1="359.42" x2="374.45" y2="398.31"/>
      <line class="m" x1="335.41" y1="365.7" x2="374.45" y2="398.31"/>
      <line class="m" x1="330.31" y1="372.98" x2="374.45" y2="398.31"/>
      <line class="m" x1="326.56" y1="381.03" x2="374.45" y2="398.31"/>
      <line class="m" x1="324.26" y1="389.61" x2="374.45" y2="398.31"/>
      <line class="m" x1="323.48" y1="398.46" x2="425.11" y2="398.46"/>
      <line class="m" x1="374.45" y1="398.31" x2="424.34" y2="389.66"/>
      <line class="m" x1="374.45" y1="398.31" x2="422.06" y2="381.13"/>
      <line class="m" x1="374.45" y1="398.31" x2="418.33" y2="373.13"/>
      <line class="m" x1="374.45" y1="398.31" x2="413.26" y2="365.89"/>
      <line class="m" x1="374.45" y1="398.31" x2="407.01" y2="359.65"/>
      <line class="m" x1="374.45" y1="398.31" x2="399.78" y2="354.58"/>
      <line class="m" x1="374.45" y1="398.31" x2="391.78" y2="350.85"/>
      <line class="m" x1="374.45" y1="398.31" x2="383.24" y2="348.56"/>
    </g>
  </g>
  <line class="n" x1="188.04" y1="405.19" x2="188.04" y2="547.95"/>
  <g>
    <g>
      <path class="j" d="M422.88,526.86V458.71A68.15,68.15,0,0,1,491,526.86Z" transform="translate(-234.84 -102.16)"/>
      <line class="o" x1="188.04" y1="346.31" x2="188.04" y2="424.7"/>
      <line class="o" x1="201.65" y1="347.5" x2="188.04" y2="424.7"/>
      <line class="o" x1="214.85" y1="351.04" x2="188.04" y2="424.7"/>
      <line class="o" x1="227.23" y1="356.81" x2="188.04" y2="424.7"/>
      <line class="o" x1="238.43" y1="364.65" x2="188.04" y2="424.7"/>
      <line class="o" x1="248.09" y1="374.31" x2="188.04" y2="424.7"/>
      <line class="o" x1="255.93" y1="385.51" x2="188.04" y2="424.7"/>
      <line class="o" x1="261.7" y1="397.89" x2="188.04" y2="424.7"/>
      <line class="o" x1="265.24" y1="411.09" x2="188.04" y2="424.7"/>
      <line class="o" x1="266.43" y1="424.7" x2="188.04" y2="424.7"/>
    </g>
    <circle class="h" cx="188.04" cy="424.7" r="8.31"/>
  </g>
  <g>
    <g>
      <line class="o" x1="86.33" y1="467.52" x2="86.33" y2="0.7"/>
      <g>
        <circle class="p" cx="86.33" cy="18.17" r="7.01"/>
        <circle class="p" cx="86.33" cy="49.02" r="9.82"/>
        <circle class="p" cx="86.33" cy="85.48" r="12.62"/>
        <circle class="p" cx="86.33" cy="127.54" r="15.42"/>
        <circle class="p" cx="86.33" cy="175.22" r="18.23"/>
        <circle class="p" cx="86.33" cy="228.18" r="21.03"/>
      </g>
    </g>
    <circle class="j" cx="86.33" cy="228.18" r="15.42"/>
    <circle class="g" cx="86.33" cy="175.22" r="11.36"/>
    <circle class="e" cx="86.33" cy="127.54" r="9.11"/>
    <circle class="h" cx="86.33" cy="85.48" r="7.01"/>
    <circle class="l" cx="86.33" cy="49.02" r="4.66"/>
    <circle class="c" cx="86.33" cy="18.17" r="2.94"/>
  </g>
  <g>
    <circle class="c" cx="236.03" cy="317.47" r="9.2"/>
    <circle class="q" cx="236.03" cy="317.47" r="15.19"/>
  </g>
  <g>
    <circle class="r" cx="133.68" cy="350.57" r="23.14"/>
    <circle class="q" cx="133.68" cy="350.57" r="15.19"/>
  </g>
  <polygon class="s" points="176.21 597.11 293.26 480.06 410.34 597.13 176.21 597.11"/>
  <g>
    <line class="o" x1="276.28" y1="496.77" x2="381.57" y2="602.06"/>
    <line class="o" x1="256.19" y1="516.99" x2="340.59" y2="601.38"/>
    <line class="o" x1="235.23" y1="539.43" x2="297.86" y2="602.06"/>
  </g>
  <polygon class="j" points="293.27 597.13 47.81 597.13 47.81 351.61 293.27 597.13"/>
  <polygon class="t" points="170.54 597.13 47.81 597.13 47.81 474.37 170.54 597.13"/>
  <g>
    <line class="o" x1="44.38" y1="390.61" x2="255.83" y2="602.06"/>
    <line class="o" x1="44.38" y1="430.92" x2="214.85" y2="601.38"/>
    <line class="o" x1="44.38" y1="471.22" x2="175.22" y2="602.06"/>
    <line class="o" x1="44.38" y1="511.53" x2="134.91" y2="602.06"/>
    <line class="o" x1="44.38" y1="551.83" x2="95.75" y2="603.2"/>
  </g>
  <path class="u" d="M1199.81,1508V1073.17h-3.71c-237.2,2-429.16,193.94-431.14,431.14V1508Z" transform="translate(-234.84 -102.16)"/>
  <path class="u" d="M280.39,1508.17V1992.6h4.14c264.24-2.2,478.08-216,480.28-480.29v-4.14Z" transform="translate(-234.84 -102.16)"/>
  <path class="v" d="M1199.67,1943.18V1784.94c-152.68,0-276.46-123.77-276.46-276.46H765C765,1748.56,959.6,1943.18,1199.67,1943.18Z" transform="translate(-234.84 -102.16)"/>
  <path class="w" d="M1196.4,4541.79V4567H714.31v-25.25Zm-482.09-56.92v25.26H1196.4v-25.26Zm0-56.91v25.25H1196.4V4428Zm0-56.92v25.26H1196.4V4371Zm0-56.91v25.25H1196.4v-25.25Zm0-56.92v25.26H1196.4v-25.26Zm0-56.91v25.25H1196.4V4200.3Zm0-56.92v25.26H1196.4v-25.26Zm0-56.91v25.25H1196.4v-25.25Z" transform="translate(-234.84 -102.16)"/>
  <rect class="x" x="504.61" y="2349" width="458.13" height="458.13"/>
  <g>
    <path class="v" d="M990.7,2740.91A383.88,383.88,0,0,1,957,2767a9.71,9.71,0,0,0,11,16,406.72,406.72,0,0,0,35.34-27.4,9.71,9.71,0,0,0-12.72-14.67Z" transform="translate(-234.84 -102.16)"/>
    <path class="v" d="M932.09,2729.05a9.72,9.72,0,0,0-13.44-2.83,328,328,0,0,1-36.9,20.82,9.71,9.71,0,1,0,8.43,17.5,350,350,0,0,0,39.08-22.06A9.7,9.7,0,0,0,932.09,2729.05Z" transform="translate(-234.84 -102.16)"/>
    <path class="v" d="M933.87,2793.16a9.7,9.7,0,0,0-13.14-4,381.22,381.22,0,0,1-38.55,18,9.71,9.71,0,0,0,7.23,18,402.87,402.87,0,0,0,40.51-18.94A9.69,9.69,0,0,0,933.87,2793.16Z" transform="translate(-234.84 -102.16)"/>
    <path class="v" d="M1011.51,2819.86a9.71,9.71,0,1,0-11.54-15.61c-11.42,8.44-23.38,16.41-35.55,23.69a9.7,9.7,0,0,0-4.72,8.34,9.6,9.6,0,0,0,1.38,5,9.71,9.71,0,0,0,13.31,3.35C987.1,2837,999.59,2828.68,1011.51,2819.86Z" transform="translate(-234.84 -102.16)"/>
    <path class="v" d="M853.79,2827.61a9.71,9.71,0,0,0-11.95-6.77,383.62,383.62,0,0,1-41.6,9,9.71,9.71,0,0,0-8.18,9.58,10.18,10.18,0,0,0,.12,1.54,9.72,9.72,0,0,0,11.12,8.06,405.56,405.56,0,0,0,43.72-9.49A9.73,9.73,0,0,0,853.79,2827.61Z" transform="translate(-234.84 -102.16)"/>
    <path class="v" d="M1106.19,2725.88c8.89-11.85,17.31-24.28,25-36.94a9.71,9.71,0,1,0-16.59-10.09c-7.37,12.12-15.43,24-23.95,35.38a9.59,9.59,0,0,0-2,5.82,9.71,9.71,0,0,0,17.48,5.83Z" transform="translate(-234.84 -102.16)"/>
    <path class="v" d="M1025.3,2649.11a348.26,348.26,0,0,0,23.18-38.47,9.71,9.71,0,0,0-17.25-8.93,329.52,329.52,0,0,1-21.88,36.33,9.71,9.71,0,1,0,15.95,11.07Z" transform="translate(-234.84 -102.16)"/>
    <path class="v" d="M854.8,2647.45a9.7,9.7,0,0,0-13.13-4,217.69,217.69,0,0,1-38.56,16,9.71,9.71,0,0,0,5.67,18.57,235.94,235.94,0,0,0,42-17.42A9.7,9.7,0,0,0,854.8,2647.45Z" transform="translate(-234.84 -102.16)"/>
    <path class="v" d="M914.52,2660.62a276,276,0,0,1-34.29,24.48,9.7,9.7,0,0,0,10,16.62,294,294,0,0,0,36.73-26.2,9.71,9.71,0,0,0-12.46-14.9Z" transform="translate(-234.84 -102.16)"/>
    <path class="v" d="M983,2671.26a331.31,331.31,0,0,1-30.4,29.55,9.71,9.71,0,1,0,12.61,14.77,351,351,0,0,0,32.19-31.3,9.71,9.71,0,1,0-14.4-13Z" transform="translate(-234.84 -102.16)"/>
    <path class="v" d="M739.45,2522.51h0a70.72,70.72,0,0,0,32-7.56,9.71,9.71,0,0,0-8.72-17.35,51.47,51.47,0,0,1-23.3,5.5h0Z" transform="translate(-234.84 -102.16)"/>
    <path class="v" d="M855.26,2709.3A9.72,9.72,0,0,0,842.6,2704a272.69,272.69,0,0,1-40.12,12.85,9.71,9.71,0,0,0-7.48,9.44,9.57,9.57,0,0,0,.26,2.24,9.7,9.7,0,0,0,11.68,7.21,290.76,290.76,0,0,0,43-13.76A9.72,9.72,0,0,0,855.26,2709.3Z" transform="translate(-234.84 -102.16)"/>
    <path class="v" d="M935,2865.61a9.71,9.71,0,1,0-8.3-17.55c-12.83,6.06-26.11,11.56-39.46,16.33a9.73,9.73,0,0,0-6.44,9.15,9.88,9.88,0,0,0,.57,3.27,9.73,9.73,0,0,0,12.42,5.87C907.77,2877.69,921.64,2872,935,2865.61Z" transform="translate(-234.84 -102.16)"/>
    <path class="v" d="M772.21,2898.55a9.71,9.71,0,0,0-10.19-9.2c-7.49.38-15.08.57-22.57.57h0v19.42h0c7.81,0,15.74-.2,23.55-.6A9.72,9.72,0,0,0,772.21,2898.55Z" transform="translate(-234.84 -102.16)"/>
    <path class="v" d="M1035.54,2724.45A406.7,406.7,0,0,0,1064,2690a9.71,9.71,0,0,0-15.63-11.52,385.27,385.27,0,0,1-27.13,32.84,9.71,9.71,0,0,0,14.27,13.17Z" transform="translate(-234.84 -102.16)"/>
    <path class="v" d="M1088.54,2652.53a403.81,403.81,0,0,0,20.21-39.93,9.71,9.71,0,1,0-17.79-7.79,383.3,383.3,0,0,1-19.23,38,9.61,9.61,0,0,0-1.31,4.85,9.71,9.71,0,0,0,18.12,4.87Z" transform="translate(-234.84 -102.16)"/>
    <path class="v" d="M739.45,2688.3h0a245.67,245.67,0,0,0,24.76-1.28,9.71,9.71,0,0,0-2-19.32,220.61,220.61,0,0,1-22.75,1.18h0Z" transform="translate(-234.84 -102.16)"/>
    <path class="v" d="M758.81,2853.62a9.71,9.71,0,0,0-.92-19.4c-6.09.29-12.29.44-18.44.44h0v19.42h0C745.91,2854.07,752.42,2853.92,758.81,2853.62Z" transform="translate(-234.84 -102.16)"/>
    <path class="v" d="M796.35,2896.16a9.71,9.71,0,0,0,11,8.17c14.68-2.18,29.4-5.11,43.75-8.71a9.71,9.71,0,1,0-4.72-18.83c-13.74,3.44-27.83,6.25-41.88,8.34a9.71,9.71,0,0,0-8.29,9.59A10.19,10.19,0,0,0,796.35,2896.16Z" transform="translate(-234.84 -102.16)"/>
    <path class="v" d="M793.53,2783.08a10.5,10.5,0,0,0,.17,1.84,9.72,9.72,0,0,0,11.36,7.71,347.65,347.65,0,0,0,43.47-11.27,9.71,9.71,0,1,0-6.08-18.44,329.11,329.11,0,0,1-41,10.64A9.72,9.72,0,0,0,793.53,2783.08Z" transform="translate(-234.84 -102.16)"/>
    <path class="v" d="M762.35,2742.67a9.71,9.71,0,1,0-1.5-19.36c-7.07.55-14.27.83-21.4.83h0v19.42h0C747.08,2743.55,754.79,2743.25,762.35,2742.67Z" transform="translate(-234.84 -102.16)"/>
    <path class="v" d="M769.62,2787.92a9.7,9.7,0,0,0-10.27-9.11c-6.6.39-13.3.59-19.9.59h0v19.42c7,0,14.07-.21,21.06-.63A9.67,9.67,0,0,0,769.62,2787.92Z" transform="translate(-234.84 -102.16)"/>
    <path class="v" d="M1077.72,2760.22a9.71,9.71,0,1,0-14.33-13.1c-9.59,10.48-19.8,20.61-30.33,30.1a9.71,9.71,0,0,0,13,14.42C1057.05,2781.74,1067.71,2771.17,1077.72,2760.22Z" transform="translate(-234.84 -102.16)"/>
    <path class="v" d="M863.1,2478.66a127,127,0,0,0,2.88-27.55h-19.4a107.73,107.73,0,0,1-2.43,23.34,9.71,9.71,0,1,0,19,4.21Z" transform="translate(-234.84 -102.16)"/>
    <path class="v" d="M919.21,2479.22a184.06,184.06,0,0,0,2.06-28.11h-19.4a165.62,165.62,0,0,1-1.85,25.13,9.71,9.71,0,0,0,19.19,3Z" transform="translate(-234.84 -102.16)"/>
    <path class="v" d="M974.89,2480a243.72,243.72,0,0,0,1.67-28.91H957.15a223.59,223.59,0,0,1-1.54,26.57,9.45,9.45,0,0,0-.07,1.18,9.71,9.71,0,0,0,19.35,1.16Z" transform="translate(-234.84 -102.16)"/>
    <path class="v" d="M786.62,2475a9.71,9.71,0,0,0,18.66,3.78,71.57,71.57,0,0,0,5.48-27.69h-19.4a52,52,0,0,1-4,20.15A9.64,9.64,0,0,0,786.62,2475Z" transform="translate(-234.84 -102.16)"/>
    <path class="v" d="M888.6,2515.72a162.56,162.56,0,0,1-21,35.34,9.71,9.71,0,1,0,15.3,12,181.73,181.73,0,0,0,23.53-39.56,9.71,9.71,0,0,0-17.82-7.73Z" transform="translate(-234.84 -102.16)"/>
    <path class="v" d="M841.89,2508.4a9.69,9.69,0,0,0-13.47,2.62,107.55,107.55,0,0,1-28,28.34,9.71,9.71,0,1,0,11.05,16,126.5,126.5,0,0,0,33-33.44A9.71,9.71,0,0,0,841.89,2508.4Z" transform="translate(-234.84 -102.16)"/>
    <path class="v" d="M1141.17,2482.92c.83-10.52,1.22-21.19,1.22-31.81H1123c0,10.11-.37,20.29-1.16,30.3,0,.26,0,.51,0,.77a9.7,9.7,0,0,0,19.38.74Z" transform="translate(-234.84 -102.16)"/>
    <path class="v" d="M1030.39,2480.93c1-9.84,1.44-19.85,1.44-29.82h-19.41a277.68,277.68,0,0,1-1.35,27.87c0,.33-.05.66-.05,1a9.71,9.71,0,0,0,19.37,1Z" transform="translate(-234.84 -102.16)"/>
    <path class="v" d="M1196.89,2478c.52-8.91.69-17.93.69-26.92h-19.42c0,8.62-.16,17.26-.65,25.79,0,.19,0,.38,0,.57a9.71,9.71,0,0,0,19.4.56Z" transform="translate(-234.84 -102.16)"/>
    <path class="v" d="M1085.8,2481.92c.9-10.19,1.31-20.53,1.31-30.81H1067.7c0,9.71-.39,19.48-1.24,29.11,0,.29,0,.58,0,.86a9.71,9.71,0,0,0,19.38.84Z" transform="translate(-234.84 -102.16)"/>
    <path class="v" d="M755.59,2451.11H742.72a3.28,3.28,0,0,1-3.27,3.28h0v12.86h0A16.16,16.16,0,0,0,755.59,2451.11Z" transform="translate(-234.84 -102.16)"/>
    <path class="v" d="M970,2597.46a276.44,276.44,0,0,1-25.3,33.72A9.71,9.71,0,0,0,959.27,2644a295.25,295.25,0,0,0,27.09-36.11A9.71,9.71,0,1,0,970,2597.46Z" transform="translate(-234.84 -102.16)"/>
    <path class="v" d="M852,2581.81A9.7,9.7,0,0,0,838.4,2580a162.85,162.85,0,0,1-35.48,20.73,9.71,9.71,0,1,0,7.59,17.87,181.89,181.89,0,0,0,39.73-23.21A9.7,9.7,0,0,0,852,2581.81Z" transform="translate(-234.84 -102.16)"/>
    <path class="v" d="M739.45,2633h0a186.28,186.28,0,0,0,26.75-2,9.71,9.71,0,1,0-2.83-19.21,164.3,164.3,0,0,1-23.92,1.75h0Z" transform="translate(-234.84 -102.16)"/>
    <path class="v" d="M906.26,2591.1a219.24,219.24,0,0,1-29.79,29.28,9.71,9.71,0,1,0,12.23,15.08,239.4,239.4,0,0,0,32.43-31.87,9.71,9.71,0,1,0-14.87-12.49Z" transform="translate(-234.84 -102.16)"/>
    <path class="v" d="M768.47,2574.43a9.71,9.71,0,1,0-4.43-18.9,107.86,107.86,0,0,1-24.59,2.83h0v19.41A126.66,126.66,0,0,0,768.47,2574.43Z" transform="translate(-234.84 -102.16)"/>
    <path class="v" d="M1152.5,2649.74c6.43-13.35,12.27-27.17,17.37-41.09a9.71,9.71,0,1,0-18.23-6.67c-4.88,13.32-10.48,26.55-16.64,39.33a9.71,9.71,0,0,0,17.5,8.43Z" transform="translate(-234.84 -102.16)"/>
    <path class="v" d="M1124.38,2570.66a404.79,404.79,0,0,0,10.85-43.4,9.71,9.71,0,0,0-19.08-3.65,383.47,383.47,0,0,1-10.32,41.3,9.92,9.92,0,0,0-.44,2.88,9.71,9.71,0,0,0,19,2.87Z" transform="translate(-234.84 -102.16)"/>
    <path class="v" d="M1183.13,2566.05c3.71-14.34,6.75-29,9-43.68a9.71,9.71,0,1,0-19.18-3c-2.19,14-5.1,28.09-8.65,41.83a9.71,9.71,0,1,0,18.8,4.85Z" transform="translate(-234.84 -102.16)"/>
    <path class="v" d="M1003.6,2520.43a272.32,272.32,0,0,1-13.82,39.83,9.71,9.71,0,0,0,17.8,7.77,290.33,290.33,0,0,0,14.8-42.68,9.71,9.71,0,1,0-18.78-4.92Z" transform="translate(-234.84 -102.16)"/>
    <path class="v" d="M946.61,2518.43A217.3,217.3,0,0,1,930,2556.71a9.71,9.71,0,1,0,17,9.43,236.68,236.68,0,0,0,18.16-41.71,9.71,9.71,0,0,0-18.47-6Z" transform="translate(-234.84 -102.16)"/>
    <path class="v" d="M1060,2522.12a326.65,326.65,0,0,1-11.81,40.74,9.7,9.7,0,0,0,5.83,12.43,9.7,9.7,0,0,0,12.43-5.82A348.31,348.31,0,0,0,1079,2526.3a9.71,9.71,0,0,0-19-4.18Z" transform="translate(-234.84 -102.16)"/>
  </g>
  <rect class="x" x="280.29" y="1992" width="459.44" height="459.44" transform="matrix(-1, 0, 0, -1, 785.17, 4341.28)"/>
  <g>
    <path class="v" d="M487.76,2160.85a387.88,387.88,0,0,1,33.75-26.16,9.73,9.73,0,1,0-11.06-16A405.62,405.62,0,0,0,475,2146.14a9.74,9.74,0,1,0,12.76,14.71Z" transform="translate(-234.84 -102.16)"/>
    <path class="v" d="M546.54,2172.76a9.74,9.74,0,0,0,13.48,2.83,329,329,0,0,1,37-20.88,9.74,9.74,0,1,0-8.45-17.55,352.05,352.05,0,0,0-39.2,22.12A9.74,9.74,0,0,0,546.54,2172.76Z" transform="translate(-234.84 -102.16)"/>
    <path class="v" d="M544.74,2108.46a9.74,9.74,0,0,0,13.19,4,382.37,382.37,0,0,1,38.66-18.07,9.74,9.74,0,0,0-7.25-18.08,403,403,0,0,0-40.63,19A9.74,9.74,0,0,0,544.74,2108.46Z" transform="translate(-234.84 -102.16)"/>
    <path class="v" d="M466.89,2081.68a9.74,9.74,0,1,0,11.57,15.66c11.45-8.46,23.45-16.46,35.65-23.76a9.74,9.74,0,1,0-10-16.71C491.37,2064.49,478.85,2072.84,466.89,2081.68Z" transform="translate(-234.84 -102.16)"/>
    <path class="v" d="M625.06,2073.91a9.74,9.74,0,0,0,12,6.79,383.44,383.44,0,0,1,41.72-9A9.76,9.76,0,0,0,687,2062a9,9,0,0,0-.13-1.54,9.73,9.73,0,0,0-11.15-8.08,405.36,405.36,0,0,0-43.84,9.51A9.74,9.74,0,0,0,625.06,2073.91Z" transform="translate(-234.84 -102.16)"/>
    <path class="v" d="M371.94,2175.93c-8.92,11.89-17.36,24.35-25.08,37a9.74,9.74,0,0,0,16.63,10.13c7.4-12.16,15.48-24.1,24-35.48a9.74,9.74,0,0,0-15.58-11.69Z" transform="translate(-234.84 -102.16)"/>
    <path class="v" d="M453.06,2252.92a348.66,348.66,0,0,0-23.24,38.58,9.73,9.73,0,1,0,17.29,8.95A332.27,332.27,0,0,1,469.05,2264a9.73,9.73,0,1,0-16-11.1Z" transform="translate(-234.84 -102.16)"/>
    <path class="v" d="M624,2254.59a9.74,9.74,0,0,0,13.17,4,217.45,217.45,0,0,1,38.67-16A9.73,9.73,0,0,0,670.2,2224a236.94,236.94,0,0,0-42.14,17.46A9.74,9.74,0,0,0,624,2254.59Z" transform="translate(-234.84 -102.16)"/>
    <path class="v" d="M564.15,2241.38a275.9,275.9,0,0,1,34.4-24.55,9.73,9.73,0,0,0,4.71-8.34,9.6,9.6,0,0,0-1.41-5,9.72,9.72,0,0,0-13.36-3.31,293.93,293.93,0,0,0-36.83,26.28,9.74,9.74,0,0,0,12.49,14.94Z" transform="translate(-234.84 -102.16)"/>
    <path class="v" d="M495.5,2230.71A333.3,333.3,0,0,1,526,2201.07a9.73,9.73,0,1,0-12.65-14.8,351.57,351.57,0,0,0-32.28,31.38,9.73,9.73,0,1,0,14.44,13.06Z" transform="translate(-234.84 -102.16)"/>
    <path class="v" d="M739.73,2379.88h0a70.8,70.8,0,0,0-32.11,7.59,9.74,9.74,0,1,0,8.74,17.4,51.58,51.58,0,0,1,23.37-5.52h0Z" transform="translate(-234.84 -102.16)"/>
    <path class="v" d="M623.59,2192.56a9.73,9.73,0,0,0,12.69,5.33A273.09,273.09,0,0,1,676.52,2185a9.74,9.74,0,0,0,7.5-9.47,9.59,9.59,0,0,0-.27-2.24,9.72,9.72,0,0,0-11.71-7.24,292.39,292.39,0,0,0-43.12,13.8A9.74,9.74,0,0,0,623.59,2192.56Z" transform="translate(-234.84 -102.16)"/>
    <path class="v" d="M543.58,2035.8a9.74,9.74,0,1,0,8.32,17.61c12.87-6.09,26.18-11.6,39.57-16.39a9.73,9.73,0,0,0,6.46-9.16,9.89,9.89,0,0,0-.57-3.28,9.74,9.74,0,0,0-12.45-5.89C570.92,2023.69,557,2029.45,543.58,2035.8Z" transform="translate(-234.84 -102.16)"/>
    <path class="v" d="M706.87,2002.77a9.74,9.74,0,0,0,10.22,9.23c7.51-.38,15.12-.57,22.64-.57h0V1992h0c-7.84,0-15.79.2-23.63.6A9.75,9.75,0,0,0,706.87,2002.77Z" transform="translate(-234.84 -102.16)"/>
    <path class="v" d="M442.79,2177.37A407,407,0,0,0,414.22,2212a9.74,9.74,0,1,0,15.67,11.56,387.45,387.45,0,0,1,27.21-32.93,9.74,9.74,0,0,0-14.31-13.21Z" transform="translate(-234.84 -102.16)"/>
    <path class="v" d="M389.64,2249.49a406.07,406.07,0,0,0-20.27,40,9.74,9.74,0,1,0,17.84,7.81,386.5,386.5,0,0,1,19.29-38.1,9.74,9.74,0,1,0-16.86-9.75Z" transform="translate(-234.84 -102.16)"/>
    <path class="v" d="M739.73,2213.62h0a244.14,244.14,0,0,0-24.83,1.29,9.74,9.74,0,0,0,2,19.37,221.82,221.82,0,0,1,22.82-1.18h0Z" transform="translate(-234.84 -102.16)"/>
    <path class="v" d="M720.31,2047.83a9.74,9.74,0,0,0,.92,19.45c6.1-.29,12.33-.44,18.5-.44h0v-19.47h0C733.25,2047.37,726.72,2047.53,720.31,2047.83Z" transform="translate(-234.84 -102.16)"/>
    <path class="v" d="M682.66,2005.17a9.73,9.73,0,0,0-11.06-8.2c-14.72,2.19-29.48,5.13-43.87,8.73a9.74,9.74,0,1,0,4.73,18.89c13.78-3.45,27.91-6.26,42-8.36a9.73,9.73,0,0,0,8.31-9.62A10.19,10.19,0,0,0,682.66,2005.17Z" transform="translate(-234.84 -102.16)"/>
    <path class="v" d="M685.49,2118.57a9.56,9.56,0,0,0-.18-1.84,9.72,9.72,0,0,0-11.39-7.74,347.87,347.87,0,0,0-43.59,11.31,9.74,9.74,0,0,0,6.1,18.49,327.56,327.56,0,0,1,41.15-10.67A9.75,9.75,0,0,0,685.49,2118.57Z" transform="translate(-234.84 -102.16)"/>
    <path class="v" d="M716.76,2159.09a9.74,9.74,0,1,0,1.5,19.42c7.09-.55,14.31-.83,21.47-.83h0v-19.47h0C732.07,2158.21,724.34,2158.51,716.76,2159.09Z" transform="translate(-234.84 -102.16)"/>
    <path class="v" d="M709.46,2113.72a9.74,9.74,0,0,0,10.31,9.13c6.62-.39,13.33-.59,20-.59h0v-19.47c-7,0-14.12.21-21.13.62A9.73,9.73,0,0,0,709.46,2113.72Z" transform="translate(-234.84 -102.16)"/>
    <path class="v" d="M400.49,2141.5a9.74,9.74,0,0,0,14.37,13.14c9.62-10.52,19.85-20.68,30.41-30.19a9.74,9.74,0,0,0-13-14.47C421.21,2119.91,410.53,2130.52,400.49,2141.5Z" transform="translate(-234.84 -102.16)"/>
    <path class="v" d="M615.72,2423.86a128.25,128.25,0,0,0-2.89,27.62h19.46a107.73,107.73,0,0,1,2.44-23.4,9.74,9.74,0,1,0-19-4.22Z" transform="translate(-234.84 -102.16)"/>
    <path class="v" d="M559.45,2423.3a185,185,0,0,0-2.07,28.18h19.46a165.35,165.35,0,0,1,1.86-25.2,9.47,9.47,0,0,0,.11-1.5,9.74,9.74,0,0,0-19.36-1.48Z" transform="translate(-234.84 -102.16)"/>
    <path class="v" d="M503.62,2422.49a241,241,0,0,0-1.68,29h19.47a220.73,220.73,0,0,1,1.54-26.64c0-.4.07-.8.07-1.19a9.74,9.74,0,0,0-19.4-1.16Z" transform="translate(-234.84 -102.16)"/>
    <path class="v" d="M692.42,2427.5a9.74,9.74,0,0,0-18.71-3.78,71.75,71.75,0,0,0-5.5,27.76h19.45a52.43,52.43,0,0,1,4-20.2A9.75,9.75,0,0,0,692.42,2427.5Z" transform="translate(-234.84 -102.16)"/>
    <path class="v" d="M590.15,2386.69a162.45,162.45,0,0,1,21.07-35.44,9.74,9.74,0,0,0-15.35-12,182.38,182.38,0,0,0-23.59,39.68,9.74,9.74,0,1,0,17.87,7.75Z" transform="translate(-234.84 -102.16)"/>
    <path class="v" d="M637,2394a9.73,9.73,0,0,0,13.51-2.62A107.85,107.85,0,0,1,678.59,2363a9.74,9.74,0,0,0-11.08-16,127.1,127.1,0,0,0-33.15,33.54A9.74,9.74,0,0,0,637,2394Z" transform="translate(-234.84 -102.16)"/>
    <path class="v" d="M336.85,2419.58c-.82,10.55-1.21,21.26-1.22,31.9h19.48c0-10.14.37-20.34,1.16-30.38,0-.26,0-.51,0-.77a9.74,9.74,0,0,0-19.45-.75Z" transform="translate(-234.84 -102.16)"/>
    <path class="v" d="M448,2421.58a297.23,297.23,0,0,0-1.45,29.9H466c0-9.34.43-18.72,1.36-27.94,0-.34.05-.67.05-1a9.73,9.73,0,0,0-19.42-1Z" transform="translate(-234.84 -102.16)"/>
    <path class="v" d="M281,2424.49c-.52,8.93-.69,18-.69,27h19.47c0-8.64.16-17.3.66-25.86,0-.19,0-.38,0-.57a9.73,9.73,0,0,0-19.45-.56Z" transform="translate(-234.84 -102.16)"/>
    <path class="v" d="M392.38,2420.59c-.89,10.22-1.3,20.59-1.31,30.89h19.47c0-9.73.39-19.53,1.24-29.19a8.38,8.38,0,0,0,0-.86,9.74,9.74,0,0,0-19.44-.84Z" transform="translate(-234.84 -102.16)"/>
    <path class="v" d="M723.54,2451.48h12.9a3.28,3.28,0,0,1,3.29-3.28h0v-12.9h0A16.2,16.2,0,0,0,723.54,2451.48Z" transform="translate(-234.84 -102.16)"/>
    <path class="v" d="M508.54,2304.72a274.37,274.37,0,0,1,25.37-33.81,9.74,9.74,0,1,0-14.64-12.85,296.74,296.74,0,0,0-27.16,36.2,9.74,9.74,0,1,0,16.43,10.46Z" transform="translate(-234.84 -102.16)"/>
    <path class="v" d="M626.84,2320.42a9.73,9.73,0,0,0,13.65,1.78,163,163,0,0,1,35.58-20.79,9.73,9.73,0,1,0-7.61-17.92,182.24,182.24,0,0,0-39.84,23.27A9.74,9.74,0,0,0,626.84,2320.42Z" transform="translate(-234.84 -102.16)"/>
    <path class="v" d="M739.73,2269h0a184.3,184.3,0,0,0-26.82,2,9.74,9.74,0,0,0,2.84,19.27,166.47,166.47,0,0,1,24-1.76h0Z" transform="translate(-234.84 -102.16)"/>
    <path class="v" d="M572.44,2311.09a220.94,220.94,0,0,1,29.87-29.35,9.74,9.74,0,0,0-12.26-15.13,239,239,0,0,0-32.52,32,9.73,9.73,0,1,0,14.91,12.52Z" transform="translate(-234.84 -102.16)"/>
    <path class="v" d="M710.62,2327.81a9.74,9.74,0,1,0,4.45,19,108.35,108.35,0,0,1,24.66-2.84h0v-19.47A127.45,127.45,0,0,0,710.62,2327.81Z" transform="translate(-234.84 -102.16)"/>
    <path class="v" d="M325.5,2252.29c-6.45,13.38-12.31,27.25-17.42,41.21a9.73,9.73,0,1,0,18.28,6.69c4.9-13.36,10.51-26.64,16.68-39.45a9.64,9.64,0,0,0,1-4.22,9.74,9.74,0,0,0-18.51-4.23Z" transform="translate(-234.84 -102.16)"/>
    <path class="v" d="M353.7,2331.59a402.48,402.48,0,0,0-10.88,43.53,9.74,9.74,0,0,0,19.13,3.66,379.69,379.69,0,0,1,10.35-41.41,10.09,10.09,0,0,0,.44-2.89,9.74,9.74,0,0,0-19-2.89Z" transform="translate(-234.84 -102.16)"/>
    <path class="v" d="M294.77,2336.21c-3.71,14.39-6.76,29.13-9,43.81a9.74,9.74,0,1,0,19.24,3c2.2-14.06,5.11-28.17,8.67-42a9.74,9.74,0,0,0-18.86-4.87Z" transform="translate(-234.84 -102.16)"/>
    <path class="v" d="M474.82,2382A273.71,273.71,0,0,1,488.68,2342a9.74,9.74,0,0,0-17.85-7.8A292.36,292.36,0,0,0,456,2377a9.73,9.73,0,1,0,18.83,4.93Z" transform="translate(-234.84 -102.16)"/>
    <path class="v" d="M532,2384a218.13,218.13,0,0,1,16.71-38.38,9.62,9.62,0,0,0,1.23-4.72,9.74,9.74,0,0,0-18.25-4.74A237.51,237.51,0,0,0,513.45,2378a9.74,9.74,0,1,0,18.52,6Z" transform="translate(-234.84 -102.16)"/>
    <path class="v" d="M418.23,2380.27a326.21,326.21,0,0,1,11.84-40.85,9.74,9.74,0,0,0-18.31-6.63,346.79,346.79,0,0,0-12.55,43.29,9.74,9.74,0,0,0,19,4.19Z" transform="translate(-234.84 -102.16)"/>
  </g>
  <path class="y" d="M281.5,3389.75V3868h4.09c260.9-2.18,472-213.28,474.18-474.13v-8.18c-2.18-260.9-213.28-472-474.18-474.18H281.5Z" transform="translate(-234.84 -102.16)"/>
  <path class="z" d="M964.59,3025.14h1A116.14,116.14,0,0,0,1080.7,2910v-1A118.7,118.7,0,0,0,964.59,3025.14Z" transform="translate(-234.84 -102.16)"/>
  <path class="z" d="M964.59,3140.86h1a116.13,116.13,0,0,0,115.14-115.12v-1A118.7,118.7,0,0,0,964.59,3140.86Z" transform="translate(-234.84 -102.16)"/>
  <path class="z" d="M964.59,3255.7h1a116.13,116.13,0,0,0,115.14-115.12v-1A118.7,118.7,0,0,0,964.59,3255.7Z" transform="translate(-234.84 -102.16)"/>
  <path class="z" d="M964.59,3371.87h1a116.14,116.14,0,0,0,115.14-115.13v-1A118.71,118.71,0,0,0,964.59,3371.87Z" transform="translate(-234.84 -102.16)"/>
  <path class="z" d="M964.59,3487.59h1a116.14,116.14,0,0,0,115.14-115.13v-1A118.7,118.7,0,0,0,964.59,3487.59Z" transform="translate(-234.84 -102.16)"/>
  <path class="u" d="M1107.56,3334.64c0-.94,0-1.89,0-2.83h0Z" transform="translate(-234.84 -102.16)"/>
  <path class="z" d="M1196.82,3025.14h-1A116.12,116.12,0,0,1,1080.72,2910v-1A118.7,118.7,0,0,1,1196.82,3025.14Z" transform="translate(-234.84 -102.16)"/>
  <path class="z" d="M1196.82,3140.86h-1a116.11,116.11,0,0,1-115.13-115.12v-1A118.7,118.7,0,0,1,1196.82,3140.86Z" transform="translate(-234.84 -102.16)"/>
  <path class="z" d="M1196.82,3255.7h-1a116.11,116.11,0,0,1-115.13-115.12v-1A118.7,118.7,0,0,1,1196.82,3255.7Z" transform="translate(-234.84 -102.16)"/>
  <path class="z" d="M1196.82,3371.87h-1a116.12,116.12,0,0,1-115.13-115.13v-1A118.71,118.71,0,0,1,1196.82,3371.87Z" transform="translate(-234.84 -102.16)"/>
  <path class="z" d="M1196.82,3487.59h-1a116.12,116.12,0,0,1-115.13-115.13v-1A118.7,118.7,0,0,1,1196.82,3487.59Z" transform="translate(-234.84 -102.16)"/>
  <g>
    <path class="z" d="M964.59,3602.43h1A116.14,116.14,0,0,0,1080.7,3487.3v-1A118.71,118.71,0,0,0,964.59,3602.43Z" transform="translate(-234.84 -102.16)"/>
    <path class="z" d="M1196.82,3602.43h-1a116.12,116.12,0,0,1-115.13-115.13v-1A118.71,118.71,0,0,1,1196.82,3602.43Z" transform="translate(-234.84 -102.16)"/>
  </g>
  <path class="u" d="M1055.18,3334.64c0-.94,0-1.89,0-2.83h0Z" transform="translate(-234.84 -102.16)"/>
</svg>
